<svg xmlns="http://www.w3.org/2000/svg" viewBox="0 0 1050 600" width="1050" height="600">
  <!-- Background -->
  <rect width="1050" height="600" fill="#000000"/>

  <!-- Logo: same layout as front card, scaled down and centered -->
  <g transform="translate(282, 30) scale(0.65)">
    <rect x="62" y="68" width="70" height="14" rx="7" fill="#F17300"/>
    <rect x="34" y="42" width="36" height="66" rx="7" fill="#F17300"/>
    <rect x="14" y="50" width="28" height="50" rx="5" fill="#F17300"/>
    <rect x="124" y="42" width="36" height="66" rx="7" fill="#F17300"/>
    <rect x="152" y="50" width="28" height="50" rx="5" fill="#F17300"/>
    <rect x="208" y="36" width="4" height="78" rx="2" fill="#F17300" opacity="0.4"/>
    <text x="240" y="110" font-family="Oswald, sans-serif" font-weight="700" font-size="78" fill="#F17300" letter-spacing="8">DUMBLIFTS</text>
  </g>

  <!-- Tagline -->
  <text x="525" y="140" font-family="Oswald, sans-serif" font-weight="400" font-size="12" fill="#FFFFFF" letter-spacing="4" text-anchor="middle">LIFT STUPID HEAVY</text>

  <!-- Thin divider line -->
  <line x1="200" y1="162" x2="850" y2="162" stroke="#1a1a1a" stroke-width="1"/>

  <!-- Hook copy - left side -->
  <text x="170" y="210" font-family="Oswald, sans-serif" font-weight="600" font-size="18" fill="#FFFFFF" letter-spacing="1">A DUMBBELL STRENGTH PROGRAM</text>
  <text x="170" y="242" font-family="Source Sans 3, sans-serif" font-weight="400" font-size="14" fill="#9a9488">Three exercises. Five sets of five. Three days a week.</text>
  <text x="170" y="267" font-family="Source Sans 3, sans-serif" font-weight="400" font-size="14" fill="#9a9488">No barbell required. No account required. No excuses.</text>

  <!-- Feature bullets -->
  <circle cx="182" cy="307" r="3" fill="#F17300"/>
  <text x="195" y="311" font-family="Source Sans 3, sans-serif" font-weight="400" font-size="13" fill="#9a9488">Track sets and weights with one tap</text>
  <circle cx="182" cy="332" r="3" fill="#F17300"/>
  <text x="195" y="336" font-family="Source Sans 3, sans-serif" font-weight="400" font-size="13" fill="#9a9488">Works offline, installs to your phone</text>
  <circle cx="182" cy="357" r="3" fill="#F17300"/>
  <text x="195" y="361" font-family="Source Sans 3, sans-serif" font-weight="400" font-size="13" fill="#9a9488">Free forever. Open source.</text>

  <!-- QR code - right side -->
  <g transform="translate(660, 195) scale(6)">
    <rect x="0" y="0" width="1" height="1" fill="#F17300"/>
<rect x="1" y="0" width="1" height="1" fill="#F17300"/>
<rect x="2" y="0" width="1" height="1" fill="#F17300"/>
<rect x="3" y="0" width="1" height="1" fill="#F17300"/>
<rect x="4" y="0" width="1" height="1" fill="#F17300"/>
<rect x="5" y="0" width="1" height="1" fill="#F17300"/>
<rect x="6" y="0" width="1" height="1" fill="#F17300"/>
<rect x="8" y="0" width="1" height="1" fill="#F17300"/>
<rect x="9" y="0" width="1" height="1" fill="#F17300"/>
<rect x="10" y="0" width="1" height="1" fill="#F17300"/>
<rect x="11" y="0" width="1" height="1" fill="#F17300"/>
<rect x="14" y="0" width="1" height="1" fill="#F17300"/>
<rect x="16" y="0" width="1" height="1" fill="#F17300"/>
<rect x="18" y="0" width="1" height="1" fill="#F17300"/>
<rect x="19" y="0" width="1" height="1" fill="#F17300"/>
<rect x="20" y="0" width="1" height="1" fill="#F17300"/>
<rect x="21" y="0" width="1" height="1" fill="#F17300"/>
<rect x="22" y="0" width="1" height="1" fill="#F17300"/>
<rect x="23" y="0" width="1" height="1" fill="#F17300"/>
<rect x="24" y="0" width="1" height="1" fill="#F17300"/>
<rect x="0" y="1" width="1" height="1" fill="#F17300"/>
<rect x="6" y="1" width="1" height="1" fill="#F17300"/>
<rect x="9" y="1" width="1" height="1" fill="#F17300"/>
<rect x="11" y="1" width="1" height="1" fill="#F17300"/>
<rect x="13" y="1" width="1" height="1" fill="#F17300"/>
<rect x="14" y="1" width="1" height="1" fill="#F17300"/>
<rect x="16" y="1" width="1" height="1" fill="#F17300"/>
<rect x="18" y="1" width="1" height="1" fill="#F17300"/>
<rect x="24" y="1" width="1" height="1" fill="#F17300"/>
<rect x="0" y="2" width="1" height="1" fill="#F17300"/>
<rect x="2" y="2" width="1" height="1" fill="#F17300"/>
<rect x="3" y="2" width="1" height="1" fill="#F17300"/>
<rect x="4" y="2" width="1" height="1" fill="#F17300"/>
<rect x="6" y="2" width="1" height="1" fill="#F17300"/>
<rect x="8" y="2" width="1" height="1" fill="#F17300"/>
<rect x="9" y="2" width="1" height="1" fill="#F17300"/>
<rect x="12" y="2" width="1" height="1" fill="#F17300"/>
<rect x="13" y="2" width="1" height="1" fill="#F17300"/>
<rect x="14" y="2" width="1" height="1" fill="#F17300"/>
<rect x="16" y="2" width="1" height="1" fill="#F17300"/>
<rect x="18" y="2" width="1" height="1" fill="#F17300"/>
<rect x="20" y="2" width="1" height="1" fill="#F17300"/>
<rect x="21" y="2" width="1" height="1" fill="#F17300"/>
<rect x="22" y="2" width="1" height="1" fill="#F17300"/>
<rect x="24" y="2" width="1" height="1" fill="#F17300"/>
<rect x="0" y="3" width="1" height="1" fill="#F17300"/>
<rect x="2" y="3" width="1" height="1" fill="#F17300"/>
<rect x="3" y="3" width="1" height="1" fill="#F17300"/>
<rect x="4" y="3" width="1" height="1" fill="#F17300"/>
<rect x="6" y="3" width="1" height="1" fill="#F17300"/>
<rect x="10" y="3" width="1" height="1" fill="#F17300"/>
<rect x="12" y="3" width="1" height="1" fill="#F17300"/>
<rect x="13" y="3" width="1" height="1" fill="#F17300"/>
<rect x="14" y="3" width="1" height="1" fill="#F17300"/>
<rect x="16" y="3" width="1" height="1" fill="#F17300"/>
<rect x="18" y="3" width="1" height="1" fill="#F17300"/>
<rect x="20" y="3" width="1" height="1" fill="#F17300"/>
<rect x="21" y="3" width="1" height="1" fill="#F17300"/>
<rect x="22" y="3" width="1" height="1" fill="#F17300"/>
<rect x="24" y="3" width="1" height="1" fill="#F17300"/>
<rect x="0" y="4" width="1" height="1" fill="#F17300"/>
<rect x="2" y="4" width="1" height="1" fill="#F17300"/>
<rect x="3" y="4" width="1" height="1" fill="#F17300"/>
<rect x="4" y="4" width="1" height="1" fill="#F17300"/>
<rect x="6" y="4" width="1" height="1" fill="#F17300"/>
<rect x="10" y="4" width="1" height="1" fill="#F17300"/>
<rect x="12" y="4" width="1" height="1" fill="#F17300"/>
<rect x="13" y="4" width="1" height="1" fill="#F17300"/>
<rect x="14" y="4" width="1" height="1" fill="#F17300"/>
<rect x="18" y="4" width="1" height="1" fill="#F17300"/>
<rect x="20" y="4" width="1" height="1" fill="#F17300"/>
<rect x="21" y="4" width="1" height="1" fill="#F17300"/>
<rect x="22" y="4" width="1" height="1" fill="#F17300"/>
<rect x="24" y="4" width="1" height="1" fill="#F17300"/>
<rect x="0" y="5" width="1" height="1" fill="#F17300"/>
<rect x="6" y="5" width="1" height="1" fill="#F17300"/>
<rect x="8" y="5" width="1" height="1" fill="#F17300"/>
<rect x="9" y="5" width="1" height="1" fill="#F17300"/>
<rect x="10" y="5" width="1" height="1" fill="#F17300"/>
<rect x="11" y="5" width="1" height="1" fill="#F17300"/>
<rect x="12" y="5" width="1" height="1" fill="#F17300"/>
<rect x="13" y="5" width="1" height="1" fill="#F17300"/>
<rect x="18" y="5" width="1" height="1" fill="#F17300"/>
<rect x="24" y="5" width="1" height="1" fill="#F17300"/>
<rect x="0" y="6" width="1" height="1" fill="#F17300"/>
<rect x="1" y="6" width="1" height="1" fill="#F17300"/>
<rect x="2" y="6" width="1" height="1" fill="#F17300"/>
<rect x="3" y="6" width="1" height="1" fill="#F17300"/>
<rect x="4" y="6" width="1" height="1" fill="#F17300"/>
<rect x="5" y="6" width="1" height="1" fill="#F17300"/>
<rect x="6" y="6" width="1" height="1" fill="#F17300"/>
<rect x="8" y="6" width="1" height="1" fill="#F17300"/>
<rect x="10" y="6" width="1" height="1" fill="#F17300"/>
<rect x="12" y="6" width="1" height="1" fill="#F17300"/>
<rect x="14" y="6" width="1" height="1" fill="#F17300"/>
<rect x="16" y="6" width="1" height="1" fill="#F17300"/>
<rect x="18" y="6" width="1" height="1" fill="#F17300"/>
<rect x="19" y="6" width="1" height="1" fill="#F17300"/>
<rect x="20" y="6" width="1" height="1" fill="#F17300"/>
<rect x="21" y="6" width="1" height="1" fill="#F17300"/>
<rect x="22" y="6" width="1" height="1" fill="#F17300"/>
<rect x="23" y="6" width="1" height="1" fill="#F17300"/>
<rect x="24" y="6" width="1" height="1" fill="#F17300"/>
<rect x="9" y="7" width="1" height="1" fill="#F17300"/>
<rect x="14" y="7" width="1" height="1" fill="#F17300"/>
<rect x="16" y="7" width="1" height="1" fill="#F17300"/>
<rect x="0" y="8" width="1" height="1" fill="#F17300"/>
<rect x="2" y="8" width="1" height="1" fill="#F17300"/>
<rect x="6" y="8" width="1" height="1" fill="#F17300"/>
<rect x="7" y="8" width="1" height="1" fill="#F17300"/>
<rect x="9" y="8" width="1" height="1" fill="#F17300"/>
<rect x="10" y="8" width="1" height="1" fill="#F17300"/>
<rect x="12" y="8" width="1" height="1" fill="#F17300"/>
<rect x="15" y="8" width="1" height="1" fill="#F17300"/>
<rect x="19" y="8" width="1" height="1" fill="#F17300"/>
<rect x="22" y="8" width="1" height="1" fill="#F17300"/>
<rect x="24" y="8" width="1" height="1" fill="#F17300"/>
<rect x="2" y="9" width="1" height="1" fill="#F17300"/>
<rect x="3" y="9" width="1" height="1" fill="#F17300"/>
<rect x="4" y="9" width="1" height="1" fill="#F17300"/>
<rect x="5" y="9" width="1" height="1" fill="#F17300"/>
<rect x="7" y="9" width="1" height="1" fill="#F17300"/>
<rect x="9" y="9" width="1" height="1" fill="#F17300"/>
<rect x="11" y="9" width="1" height="1" fill="#F17300"/>
<rect x="13" y="9" width="1" height="1" fill="#F17300"/>
<rect x="15" y="9" width="1" height="1" fill="#F17300"/>
<rect x="16" y="9" width="1" height="1" fill="#F17300"/>
<rect x="17" y="9" width="1" height="1" fill="#F17300"/>
<rect x="18" y="9" width="1" height="1" fill="#F17300"/>
<rect x="19" y="9" width="1" height="1" fill="#F17300"/>
<rect x="21" y="9" width="1" height="1" fill="#F17300"/>
<rect x="23" y="9" width="1" height="1" fill="#F17300"/>
<rect x="24" y="9" width="1" height="1" fill="#F17300"/>
<rect x="0" y="10" width="1" height="1" fill="#F17300"/>
<rect x="1" y="10" width="1" height="1" fill="#F17300"/>
<rect x="2" y="10" width="1" height="1" fill="#F17300"/>
<rect x="6" y="10" width="1" height="1" fill="#F17300"/>
<rect x="8" y="10" width="1" height="1" fill="#F17300"/>
<rect x="11" y="10" width="1" height="1" fill="#F17300"/>
<rect x="12" y="10" width="1" height="1" fill="#F17300"/>
<rect x="15" y="10" width="1" height="1" fill="#F17300"/>
<rect x="16" y="10" width="1" height="1" fill="#F17300"/>
<rect x="18" y="10" width="1" height="1" fill="#F17300"/>
<rect x="19" y="10" width="1" height="1" fill="#F17300"/>
<rect x="20" y="10" width="1" height="1" fill="#F17300"/>
<rect x="21" y="10" width="1" height="1" fill="#F17300"/>
<rect x="22" y="10" width="1" height="1" fill="#F17300"/>
<rect x="24" y="10" width="1" height="1" fill="#F17300"/>
<rect x="2" y="11" width="1" height="1" fill="#F17300"/>
<rect x="3" y="11" width="1" height="1" fill="#F17300"/>
<rect x="5" y="11" width="1" height="1" fill="#F17300"/>
<rect x="7" y="11" width="1" height="1" fill="#F17300"/>
<rect x="9" y="11" width="1" height="1" fill="#F17300"/>
<rect x="10" y="11" width="1" height="1" fill="#F17300"/>
<rect x="11" y="11" width="1" height="1" fill="#F17300"/>
<rect x="14" y="11" width="1" height="1" fill="#F17300"/>
<rect x="15" y="11" width="1" height="1" fill="#F17300"/>
<rect x="16" y="11" width="1" height="1" fill="#F17300"/>
<rect x="17" y="11" width="1" height="1" fill="#F17300"/>
<rect x="19" y="11" width="1" height="1" fill="#F17300"/>
<rect x="21" y="11" width="1" height="1" fill="#F17300"/>
<rect x="0" y="12" width="1" height="1" fill="#F17300"/>
<rect x="1" y="12" width="1" height="1" fill="#F17300"/>
<rect x="2" y="12" width="1" height="1" fill="#F17300"/>
<rect x="6" y="12" width="1" height="1" fill="#F17300"/>
<rect x="10" y="12" width="1" height="1" fill="#F17300"/>
<rect x="11" y="12" width="1" height="1" fill="#F17300"/>
<rect x="12" y="12" width="1" height="1" fill="#F17300"/>
<rect x="15" y="12" width="1" height="1" fill="#F17300"/>
<rect x="16" y="12" width="1" height="1" fill="#F17300"/>
<rect x="18" y="12" width="1" height="1" fill="#F17300"/>
<rect x="19" y="12" width="1" height="1" fill="#F17300"/>
<rect x="24" y="12" width="1" height="1" fill="#F17300"/>
<rect x="2" y="13" width="1" height="1" fill="#F17300"/>
<rect x="3" y="13" width="1" height="1" fill="#F17300"/>
<rect x="8" y="13" width="1" height="1" fill="#F17300"/>
<rect x="9" y="13" width="1" height="1" fill="#F17300"/>
<rect x="12" y="13" width="1" height="1" fill="#F17300"/>
<rect x="13" y="13" width="1" height="1" fill="#F17300"/>
<rect x="15" y="13" width="1" height="1" fill="#F17300"/>
<rect x="16" y="13" width="1" height="1" fill="#F17300"/>
<rect x="18" y="13" width="1" height="1" fill="#F17300"/>
<rect x="19" y="13" width="1" height="1" fill="#F17300"/>
<rect x="23" y="13" width="1" height="1" fill="#F17300"/>
<rect x="24" y="13" width="1" height="1" fill="#F17300"/>
<rect x="0" y="14" width="1" height="1" fill="#F17300"/>
<rect x="1" y="14" width="1" height="1" fill="#F17300"/>
<rect x="3" y="14" width="1" height="1" fill="#F17300"/>
<rect x="5" y="14" width="1" height="1" fill="#F17300"/>
<rect x="6" y="14" width="1" height="1" fill="#F17300"/>
<rect x="9" y="14" width="1" height="1" fill="#F17300"/>
<rect x="10" y="14" width="1" height="1" fill="#F17300"/>
<rect x="12" y="14" width="1" height="1" fill="#F17300"/>
<rect x="13" y="14" width="1" height="1" fill="#F17300"/>
<rect x="15" y="14" width="1" height="1" fill="#F17300"/>
<rect x="21" y="14" width="1" height="1" fill="#F17300"/>
<rect x="22" y="14" width="1" height="1" fill="#F17300"/>
<rect x="24" y="14" width="1" height="1" fill="#F17300"/>
<rect x="3" y="15" width="1" height="1" fill="#F17300"/>
<rect x="4" y="15" width="1" height="1" fill="#F17300"/>
<rect x="5" y="15" width="1" height="1" fill="#F17300"/>
<rect x="7" y="15" width="1" height="1" fill="#F17300"/>
<rect x="9" y="15" width="1" height="1" fill="#F17300"/>
<rect x="10" y="15" width="1" height="1" fill="#F17300"/>
<rect x="11" y="15" width="1" height="1" fill="#F17300"/>
<rect x="12" y="15" width="1" height="1" fill="#F17300"/>
<rect x="14" y="15" width="1" height="1" fill="#F17300"/>
<rect x="17" y="15" width="1" height="1" fill="#F17300"/>
<rect x="19" y="15" width="1" height="1" fill="#F17300"/>
<rect x="20" y="15" width="1" height="1" fill="#F17300"/>
<rect x="21" y="15" width="1" height="1" fill="#F17300"/>
<rect x="0" y="16" width="1" height="1" fill="#F17300"/>
<rect x="1" y="16" width="1" height="1" fill="#F17300"/>
<rect x="3" y="16" width="1" height="1" fill="#F17300"/>
<rect x="4" y="16" width="1" height="1" fill="#F17300"/>
<rect x="5" y="16" width="1" height="1" fill="#F17300"/>
<rect x="6" y="16" width="1" height="1" fill="#F17300"/>
<rect x="7" y="16" width="1" height="1" fill="#F17300"/>
<rect x="13" y="16" width="1" height="1" fill="#F17300"/>
<rect x="14" y="16" width="1" height="1" fill="#F17300"/>
<rect x="16" y="16" width="1" height="1" fill="#F17300"/>
<rect x="17" y="16" width="1" height="1" fill="#F17300"/>
<rect x="18" y="16" width="1" height="1" fill="#F17300"/>
<rect x="19" y="16" width="1" height="1" fill="#F17300"/>
<rect x="20" y="16" width="1" height="1" fill="#F17300"/>
<rect x="23" y="16" width="1" height="1" fill="#F17300"/>
<rect x="8" y="17" width="1" height="1" fill="#F17300"/>
<rect x="10" y="17" width="1" height="1" fill="#F17300"/>
<rect x="13" y="17" width="1" height="1" fill="#F17300"/>
<rect x="16" y="17" width="1" height="1" fill="#F17300"/>
<rect x="20" y="17" width="1" height="1" fill="#F17300"/>
<rect x="24" y="17" width="1" height="1" fill="#F17300"/>
<rect x="0" y="18" width="1" height="1" fill="#F17300"/>
<rect x="1" y="18" width="1" height="1" fill="#F17300"/>
<rect x="2" y="18" width="1" height="1" fill="#F17300"/>
<rect x="3" y="18" width="1" height="1" fill="#F17300"/>
<rect x="4" y="18" width="1" height="1" fill="#F17300"/>
<rect x="5" y="18" width="1" height="1" fill="#F17300"/>
<rect x="6" y="18" width="1" height="1" fill="#F17300"/>
<rect x="8" y="18" width="1" height="1" fill="#F17300"/>
<rect x="11" y="18" width="1" height="1" fill="#F17300"/>
<rect x="16" y="18" width="1" height="1" fill="#F17300"/>
<rect x="18" y="18" width="1" height="1" fill="#F17300"/>
<rect x="20" y="18" width="1" height="1" fill="#F17300"/>
<rect x="24" y="18" width="1" height="1" fill="#F17300"/>
<rect x="0" y="19" width="1" height="1" fill="#F17300"/>
<rect x="6" y="19" width="1" height="1" fill="#F17300"/>
<rect x="9" y="19" width="1" height="1" fill="#F17300"/>
<rect x="13" y="19" width="1" height="1" fill="#F17300"/>
<rect x="15" y="19" width="1" height="1" fill="#F17300"/>
<rect x="16" y="19" width="1" height="1" fill="#F17300"/>
<rect x="20" y="19" width="1" height="1" fill="#F17300"/>
<rect x="23" y="19" width="1" height="1" fill="#F17300"/>
<rect x="0" y="20" width="1" height="1" fill="#F17300"/>
<rect x="2" y="20" width="1" height="1" fill="#F17300"/>
<rect x="3" y="20" width="1" height="1" fill="#F17300"/>
<rect x="4" y="20" width="1" height="1" fill="#F17300"/>
<rect x="6" y="20" width="1" height="1" fill="#F17300"/>
<rect x="11" y="20" width="1" height="1" fill="#F17300"/>
<rect x="12" y="20" width="1" height="1" fill="#F17300"/>
<rect x="13" y="20" width="1" height="1" fill="#F17300"/>
<rect x="15" y="20" width="1" height="1" fill="#F17300"/>
<rect x="16" y="20" width="1" height="1" fill="#F17300"/>
<rect x="17" y="20" width="1" height="1" fill="#F17300"/>
<rect x="18" y="20" width="1" height="1" fill="#F17300"/>
<rect x="19" y="20" width="1" height="1" fill="#F17300"/>
<rect x="20" y="20" width="1" height="1" fill="#F17300"/>
<rect x="24" y="20" width="1" height="1" fill="#F17300"/>
<rect x="0" y="21" width="1" height="1" fill="#F17300"/>
<rect x="2" y="21" width="1" height="1" fill="#F17300"/>
<rect x="3" y="21" width="1" height="1" fill="#F17300"/>
<rect x="4" y="21" width="1" height="1" fill="#F17300"/>
<rect x="6" y="21" width="1" height="1" fill="#F17300"/>
<rect x="10" y="21" width="1" height="1" fill="#F17300"/>
<rect x="12" y="21" width="1" height="1" fill="#F17300"/>
<rect x="17" y="21" width="1" height="1" fill="#F17300"/>
<rect x="20" y="21" width="1" height="1" fill="#F17300"/>
<rect x="22" y="21" width="1" height="1" fill="#F17300"/>
<rect x="23" y="21" width="1" height="1" fill="#F17300"/>
<rect x="0" y="22" width="1" height="1" fill="#F17300"/>
<rect x="2" y="22" width="1" height="1" fill="#F17300"/>
<rect x="3" y="22" width="1" height="1" fill="#F17300"/>
<rect x="4" y="22" width="1" height="1" fill="#F17300"/>
<rect x="6" y="22" width="1" height="1" fill="#F17300"/>
<rect x="8" y="22" width="1" height="1" fill="#F17300"/>
<rect x="9" y="22" width="1" height="1" fill="#F17300"/>
<rect x="10" y="22" width="1" height="1" fill="#F17300"/>
<rect x="12" y="22" width="1" height="1" fill="#F17300"/>
<rect x="13" y="22" width="1" height="1" fill="#F17300"/>
<rect x="14" y="22" width="1" height="1" fill="#F17300"/>
<rect x="17" y="22" width="1" height="1" fill="#F17300"/>
<rect x="19" y="22" width="1" height="1" fill="#F17300"/>
<rect x="20" y="22" width="1" height="1" fill="#F17300"/>
<rect x="21" y="22" width="1" height="1" fill="#F17300"/>
<rect x="23" y="22" width="1" height="1" fill="#F17300"/>
<rect x="24" y="22" width="1" height="1" fill="#F17300"/>
<rect x="0" y="23" width="1" height="1" fill="#F17300"/>
<rect x="6" y="23" width="1" height="1" fill="#F17300"/>
<rect x="9" y="23" width="1" height="1" fill="#F17300"/>
<rect x="10" y="23" width="1" height="1" fill="#F17300"/>
<rect x="11" y="23" width="1" height="1" fill="#F17300"/>
<rect x="12" y="23" width="1" height="1" fill="#F17300"/>
<rect x="14" y="23" width="1" height="1" fill="#F17300"/>
<rect x="16" y="23" width="1" height="1" fill="#F17300"/>
<rect x="19" y="23" width="1" height="1" fill="#F17300"/>
<rect x="20" y="23" width="1" height="1" fill="#F17300"/>
<rect x="0" y="24" width="1" height="1" fill="#F17300"/>
<rect x="1" y="24" width="1" height="1" fill="#F17300"/>
<rect x="2" y="24" width="1" height="1" fill="#F17300"/>
<rect x="3" y="24" width="1" height="1" fill="#F17300"/>
<rect x="4" y="24" width="1" height="1" fill="#F17300"/>
<rect x="5" y="24" width="1" height="1" fill="#F17300"/>
<rect x="6" y="24" width="1" height="1" fill="#F17300"/>
<rect x="8" y="24" width="1" height="1" fill="#F17300"/>
<rect x="9" y="24" width="1" height="1" fill="#F17300"/>
<rect x="10" y="24" width="1" height="1" fill="#F17300"/>
<rect x="13" y="24" width="1" height="1" fill="#F17300"/>
<rect x="14" y="24" width="1" height="1" fill="#F17300"/>
<rect x="16" y="24" width="1" height="1" fill="#F17300"/>
<rect x="17" y="24" width="1" height="1" fill="#F17300"/>
<rect x="21" y="24" width="1" height="1" fill="#F17300"/>
<rect x="24" y="24" width="1" height="1" fill="#F17300"/>
  </g>

  <!-- URL below QR -->
  <text x="735" y="390" font-family="Oswald, sans-serif" font-weight="600" font-size="14" fill="#F17300" letter-spacing="2" text-anchor="middle">DUMBLIFTS.COM</text>

  <!-- Thin divider line -->
  <line x1="200" y1="435" x2="850" y2="435" stroke="#1a1a1a" stroke-width="1"/>

  <!-- Bottom tagline -->
  <text x="525" y="480" font-family="Source Sans 3, sans-serif" font-weight="300" font-size="13" fill="#9a9488" text-anchor="middle" letter-spacing="1">Push. Pull. Legs. Repeat. Get stronger.</text>

  <!-- Tiny CTA -->
  <text x="525" y="535" font-family="Source Sans 3, sans-serif" font-weight="300" font-size="10" fill="#4a4a4a" text-anchor="middle" letter-spacing="1">Scan the code or visit dumblifts.com to start</text>
</svg>