<svg xmlns="http://www.w3.org/2000/svg" viewBox="0 0 2550 3300" width="2550" height="3300">
  <!-- Background -->
  <rect width="2550" height="3300" fill="#000000"/>

  <!-- Logo: full size, centered -->
  <g transform="translate(545, 300) scale(2)">
    <rect x="62" y="68" width="70" height="14" rx="7" fill="#F17300"/>
    <rect x="34" y="42" width="36" height="66" rx="7" fill="#F17300"/>
    <rect x="14" y="50" width="28" height="50" rx="5" fill="#F17300"/>
    <rect x="124" y="42" width="36" height="66" rx="7" fill="#F17300"/>
    <rect x="152" y="50" width="28" height="50" rx="5" fill="#F17300"/>
    <rect x="208" y="36" width="4" height="78" rx="2" fill="#F17300" opacity="0.4"/>
    <text x="240" y="110" font-family="Oswald, sans-serif" font-weight="700" font-size="78" fill="#F17300" letter-spacing="8">DUMBLIFTS</text>
  </g>

  <!-- Tagline -->
  <text x="1275" y="680" font-family="Oswald, sans-serif" font-weight="400" font-size="36" fill="#FFFFFF" letter-spacing="8" text-anchor="middle">LIFT STUPID HEAVY</text>

  <!-- Divider -->
  <line x1="600" y1="740" x2="1950" y2="740" stroke="#1a1a1a" stroke-width="2"/>

  <!-- Hook copy - centered, punchy -->
  <text x="1275" y="880" font-family="Oswald, sans-serif" font-weight="600" font-size="52" fill="#FFFFFF" letter-spacing="2" text-anchor="middle">A DUMBBELL STRENGTH PROGRAM</text>
  <text x="1275" y="960" font-family="Source Sans 3, sans-serif" font-weight="500" font-size="38" fill="#d0c8b8" text-anchor="middle">Three exercises. Five sets of five. Three days a week.</text>
  <text x="1275" y="1020" font-family="Source Sans 3, sans-serif" font-weight="500" font-size="38" fill="#d0c8b8" text-anchor="middle">Free. Offline. No account needed.</text>

  <!-- QR code - big and centered -->
  <g transform="translate(900, 1200) scale(30)">
    <rect x="0" y="0" width="1" height="1" fill="#F17300"/>
<rect x="1" y="0" width="1" height="1" fill="#F17300"/>
<rect x="2" y="0" width="1" height="1" fill="#F17300"/>
<rect x="3" y="0" width="1" height="1" fill="#F17300"/>
<rect x="4" y="0" width="1" height="1" fill="#F17300"/>
<rect x="5" y="0" width="1" height="1" fill="#F17300"/>
<rect x="6" y="0" width="1" height="1" fill="#F17300"/>
<rect x="8" y="0" width="1" height="1" fill="#F17300"/>
<rect x="9" y="0" width="1" height="1" fill="#F17300"/>
<rect x="10" y="0" width="1" height="1" fill="#F17300"/>
<rect x="11" y="0" width="1" height="1" fill="#F17300"/>
<rect x="14" y="0" width="1" height="1" fill="#F17300"/>
<rect x="16" y="0" width="1" height="1" fill="#F17300"/>
<rect x="18" y="0" width="1" height="1" fill="#F17300"/>
<rect x="19" y="0" width="1" height="1" fill="#F17300"/>
<rect x="20" y="0" width="1" height="1" fill="#F17300"/>
<rect x="21" y="0" width="1" height="1" fill="#F17300"/>
<rect x="22" y="0" width="1" height="1" fill="#F17300"/>
<rect x="23" y="0" width="1" height="1" fill="#F17300"/>
<rect x="24" y="0" width="1" height="1" fill="#F17300"/>
<rect x="0" y="1" width="1" height="1" fill="#F17300"/>
<rect x="6" y="1" width="1" height="1" fill="#F17300"/>
<rect x="9" y="1" width="1" height="1" fill="#F17300"/>
<rect x="11" y="1" width="1" height="1" fill="#F17300"/>
<rect x="13" y="1" width="1" height="1" fill="#F17300"/>
<rect x="14" y="1" width="1" height="1" fill="#F17300"/>
<rect x="16" y="1" width="1" height="1" fill="#F17300"/>
<rect x="18" y="1" width="1" height="1" fill="#F17300"/>
<rect x="24" y="1" width="1" height="1" fill="#F17300"/>
<rect x="0" y="2" width="1" height="1" fill="#F17300"/>
<rect x="2" y="2" width="1" height="1" fill="#F17300"/>
<rect x="3" y="2" width="1" height="1" fill="#F17300"/>
<rect x="4" y="2" width="1" height="1" fill="#F17300"/>
<rect x="6" y="2" width="1" height="1" fill="#F17300"/>
<rect x="8" y="2" width="1" height="1" fill="#F17300"/>
<rect x="9" y="2" width="1" height="1" fill="#F17300"/>
<rect x="12" y="2" width="1" height="1" fill="#F17300"/>
<rect x="13" y="2" width="1" height="1" fill="#F17300"/>
<rect x="14" y="2" width="1" height="1" fill="#F17300"/>
<rect x="16" y="2" width="1" height="1" fill="#F17300"/>
<rect x="18" y="2" width="1" height="1" fill="#F17300"/>
<rect x="20" y="2" width="1" height="1" fill="#F17300"/>
<rect x="21" y="2" width="1" height="1" fill="#F17300"/>
<rect x="22" y="2" width="1" height="1" fill="#F17300"/>
<rect x="24" y="2" width="1" height="1" fill="#F17300"/>
<rect x="0" y="3" width="1" height="1" fill="#F17300"/>
<rect x="2" y="3" width="1" height="1" fill="#F17300"/>
<rect x="3" y="3" width="1" height="1" fill="#F17300"/>
<rect x="4" y="3" width="1" height="1" fill="#F17300"/>
<rect x="6" y="3" width="1" height="1" fill="#F17300"/>
<rect x="10" y="3" width="1" height="1" fill="#F17300"/>
<rect x="12" y="3" width="1" height="1" fill="#F17300"/>
<rect x="13" y="3" width="1" height="1" fill="#F17300"/>
<rect x="14" y="3" width="1" height="1" fill="#F17300"/>
<rect x="16" y="3" width="1" height="1" fill="#F17300"/>
<rect x="18" y="3" width="1" height="1" fill="#F17300"/>
<rect x="20" y="3" width="1" height="1" fill="#F17300"/>
<rect x="21" y="3" width="1" height="1" fill="#F17300"/>
<rect x="22" y="3" width="1" height="1" fill="#F17300"/>
<rect x="24" y="3" width="1" height="1" fill="#F17300"/>
<rect x="0" y="4" width="1" height="1" fill="#F17300"/>
<rect x="2" y="4" width="1" height="1" fill="#F17300"/>
<rect x="3" y="4" width="1" height="1" fill="#F17300"/>
<rect x="4" y="4" width="1" height="1" fill="#F17300"/>
<rect x="6" y="4" width="1" height="1" fill="#F17300"/>
<rect x="10" y="4" width="1" height="1" fill="#F17300"/>
<rect x="12" y="4" width="1" height="1" fill="#F17300"/>
<rect x="13" y="4" width="1" height="1" fill="#F17300"/>
<rect x="14" y="4" width="1" height="1" fill="#F17300"/>
<rect x="18" y="4" width="1" height="1" fill="#F17300"/>
<rect x="20" y="4" width="1" height="1" fill="#F17300"/>
<rect x="21" y="4" width="1" height="1" fill="#F17300"/>
<rect x="22" y="4" width="1" height="1" fill="#F17300"/>
<rect x="24" y="4" width="1" height="1" fill="#F17300"/>
<rect x="0" y="5" width="1" height="1" fill="#F17300"/>
<rect x="6" y="5" width="1" height="1" fill="#F17300"/>
<rect x="8" y="5" width="1" height="1" fill="#F17300"/>
<rect x="9" y="5" width="1" height="1" fill="#F17300"/>
<rect x="10" y="5" width="1" height="1" fill="#F17300"/>
<rect x="11" y="5" width="1" height="1" fill="#F17300"/>
<rect x="12" y="5" width="1" height="1" fill="#F17300"/>
<rect x="13" y="5" width="1" height="1" fill="#F17300"/>
<rect x="18" y="5" width="1" height="1" fill="#F17300"/>
<rect x="24" y="5" width="1" height="1" fill="#F17300"/>
<rect x="0" y="6" width="1" height="1" fill="#F17300"/>
<rect x="1" y="6" width="1" height="1" fill="#F17300"/>
<rect x="2" y="6" width="1" height="1" fill="#F17300"/>
<rect x="3" y="6" width="1" height="1" fill="#F17300"/>
<rect x="4" y="6" width="1" height="1" fill="#F17300"/>
<rect x="5" y="6" width="1" height="1" fill="#F17300"/>
<rect x="6" y="6" width="1" height="1" fill="#F17300"/>
<rect x="8" y="6" width="1" height="1" fill="#F17300"/>
<rect x="10" y="6" width="1" height="1" fill="#F17300"/>
<rect x="12" y="6" width="1" height="1" fill="#F17300"/>
<rect x="14" y="6" width="1" height="1" fill="#F17300"/>
<rect x="16" y="6" width="1" height="1" fill="#F17300"/>
<rect x="18" y="6" width="1" height="1" fill="#F17300"/>
<rect x="19" y="6" width="1" height="1" fill="#F17300"/>
<rect x="20" y="6" width="1" height="1" fill="#F17300"/>
<rect x="21" y="6" width="1" height="1" fill="#F17300"/>
<rect x="22" y="6" width="1" height="1" fill="#F17300"/>
<rect x="23" y="6" width="1" height="1" fill="#F17300"/>
<rect x="24" y="6" width="1" height="1" fill="#F17300"/>
<rect x="9" y="7" width="1" height="1" fill="#F17300"/>
<rect x="14" y="7" width="1" height="1" fill="#F17300"/>
<rect x="16" y="7" width="1" height="1" fill="#F17300"/>
<rect x="0" y="8" width="1" height="1" fill="#F17300"/>
<rect x="2" y="8" width="1" height="1" fill="#F17300"/>
<rect x="6" y="8" width="1" height="1" fill="#F17300"/>
<rect x="7" y="8" width="1" height="1" fill="#F17300"/>
<rect x="9" y="8" width="1" height="1" fill="#F17300"/>
<rect x="10" y="8" width="1" height="1" fill="#F17300"/>
<rect x="12" y="8" width="1" height="1" fill="#F17300"/>
<rect x="15" y="8" width="1" height="1" fill="#F17300"/>
<rect x="19" y="8" width="1" height="1" fill="#F17300"/>
<rect x="22" y="8" width="1" height="1" fill="#F17300"/>
<rect x="24" y="8" width="1" height="1" fill="#F17300"/>
<rect x="2" y="9" width="1" height="1" fill="#F17300"/>
<rect x="3" y="9" width="1" height="1" fill="#F17300"/>
<rect x="4" y="9" width="1" height="1" fill="#F17300"/>
<rect x="5" y="9" width="1" height="1" fill="#F17300"/>
<rect x="7" y="9" width="1" height="1" fill="#F17300"/>
<rect x="9" y="9" width="1" height="1" fill="#F17300"/>
<rect x="11" y="9" width="1" height="1" fill="#F17300"/>
<rect x="13" y="9" width="1" height="1" fill="#F17300"/>
<rect x="15" y="9" width="1" height="1" fill="#F17300"/>
<rect x="16" y="9" width="1" height="1" fill="#F17300"/>
<rect x="17" y="9" width="1" height="1" fill="#F17300"/>
<rect x="18" y="9" width="1" height="1" fill="#F17300"/>
<rect x="19" y="9" width="1" height="1" fill="#F17300"/>
<rect x="21" y="9" width="1" height="1" fill="#F17300"/>
<rect x="23" y="9" width="1" height="1" fill="#F17300"/>
<rect x="24" y="9" width="1" height="1" fill="#F17300"/>
<rect x="0" y="10" width="1" height="1" fill="#F17300"/>
<rect x="1" y="10" width="1" height="1" fill="#F17300"/>
<rect x="2" y="10" width="1" height="1" fill="#F17300"/>
<rect x="6" y="10" width="1" height="1" fill="#F17300"/>
<rect x="8" y="10" width="1" height="1" fill="#F17300"/>
<rect x="11" y="10" width="1" height="1" fill="#F17300"/>
<rect x="12" y="10" width="1" height="1" fill="#F17300"/>
<rect x="15" y="10" width="1" height="1" fill="#F17300"/>
<rect x="16" y="10" width="1" height="1" fill="#F17300"/>
<rect x="18" y="10" width="1" height="1" fill="#F17300"/>
<rect x="19" y="10" width="1" height="1" fill="#F17300"/>
<rect x="20" y="10" width="1" height="1" fill="#F17300"/>
<rect x="21" y="10" width="1" height="1" fill="#F17300"/>
<rect x="22" y="10" width="1" height="1" fill="#F17300"/>
<rect x="24" y="10" width="1" height="1" fill="#F17300"/>
<rect x="2" y="11" width="1" height="1" fill="#F17300"/>
<rect x="3" y="11" width="1" height="1" fill="#F17300"/>
<rect x="5" y="11" width="1" height="1" fill="#F17300"/>
<rect x="7" y="11" width="1" height="1" fill="#F17300"/>
<rect x="9" y="11" width="1" height="1" fill="#F17300"/>
<rect x="10" y="11" width="1" height="1" fill="#F17300"/>
<rect x="11" y="11" width="1" height="1" fill="#F17300"/>
<rect x="14" y="11" width="1" height="1" fill="#F17300"/>
<rect x="15" y="11" width="1" height="1" fill="#F17300"/>
<rect x="16" y="11" width="1" height="1" fill="#F17300"/>
<rect x="17" y="11" width="1" height="1" fill="#F17300"/>
<rect x="19" y="11" width="1" height="1" fill="#F17300"/>
<rect x="21" y="11" width="1" height="1" fill="#F17300"/>
<rect x="0" y="12" width="1" height="1" fill="#F17300"/>
<rect x="1" y="12" width="1" height="1" fill="#F17300"/>
<rect x="2" y="12" width="1" height="1" fill="#F17300"/>
<rect x="6" y="12" width="1" height="1" fill="#F17300"/>
<rect x="10" y="12" width="1" height="1" fill="#F17300"/>
<rect x="11" y="12" width="1" height="1" fill="#F17300"/>
<rect x="12" y="12" width="1" height="1" fill="#F17300"/>
<rect x="15" y="12" width="1" height="1" fill="#F17300"/>
<rect x="16" y="12" width="1" height="1" fill="#F17300"/>
<rect x="18" y="12" width="1" height="1" fill="#F17300"/>
<rect x="19" y="12" width="1" height="1" fill="#F17300"/>
<rect x="24" y="12" width="1" height="1" fill="#F17300"/>
<rect x="2" y="13" width="1" height="1" fill="#F17300"/>
<rect x="3" y="13" width="1" height="1" fill="#F17300"/>
<rect x="8" y="13" width="1" height="1" fill="#F17300"/>
<rect x="9" y="13" width="1" height="1" fill="#F17300"/>
<rect x="12" y="13" width="1" height="1" fill="#F17300"/>
<rect x="13" y="13" width="1" height="1" fill="#F17300"/>
<rect x="15" y="13" width="1" height="1" fill="#F17300"/>
<rect x="16" y="13" width="1" height="1" fill="#F17300"/>
<rect x="18" y="13" width="1" height="1" fill="#F17300"/>
<rect x="19" y="13" width="1" height="1" fill="#F17300"/>
<rect x="23" y="13" width="1" height="1" fill="#F17300"/>
<rect x="24" y="13" width="1" height="1" fill="#F17300"/>
<rect x="0" y="14" width="1" height="1" fill="#F17300"/>
<rect x="1" y="14" width="1" height="1" fill="#F17300"/>
<rect x="3" y="14" width="1" height="1" fill="#F17300"/>
<rect x="5" y="14" width="1" height="1" fill="#F17300"/>
<rect x="6" y="14" width="1" height="1" fill="#F17300"/>
<rect x="9" y="14" width="1" height="1" fill="#F17300"/>
<rect x="10" y="14" width="1" height="1" fill="#F17300"/>
<rect x="12" y="14" width="1" height="1" fill="#F17300"/>
<rect x="13" y="14" width="1" height="1" fill="#F17300"/>
<rect x="15" y="14" width="1" height="1" fill="#F17300"/>
<rect x="21" y="14" width="1" height="1" fill="#F17300"/>
<rect x="22" y="14" width="1" height="1" fill="#F17300"/>
<rect x="24" y="14" width="1" height="1" fill="#F17300"/>
<rect x="3" y="15" width="1" height="1" fill="#F17300"/>
<rect x="4" y="15" width="1" height="1" fill="#F17300"/>
<rect x="5" y="15" width="1" height="1" fill="#F17300"/>
<rect x="7" y="15" width="1" height="1" fill="#F17300"/>
<rect x="9" y="15" width="1" height="1" fill="#F17300"/>
<rect x="10" y="15" width="1" height="1" fill="#F17300"/>
<rect x="11" y="15" width="1" height="1" fill="#F17300"/>
<rect x="12" y="15" width="1" height="1" fill="#F17300"/>
<rect x="14" y="15" width="1" height="1" fill="#F17300"/>
<rect x="17" y="15" width="1" height="1" fill="#F17300"/>
<rect x="19" y="15" width="1" height="1" fill="#F17300"/>
<rect x="20" y="15" width="1" height="1" fill="#F17300"/>
<rect x="21" y="15" width="1" height="1" fill="#F17300"/>
<rect x="0" y="16" width="1" height="1" fill="#F17300"/>
<rect x="1" y="16" width="1" height="1" fill="#F17300"/>
<rect x="3" y="16" width="1" height="1" fill="#F17300"/>
<rect x="4" y="16" width="1" height="1" fill="#F17300"/>
<rect x="5" y="16" width="1" height="1" fill="#F17300"/>
<rect x="6" y="16" width="1" height="1" fill="#F17300"/>
<rect x="7" y="16" width="1" height="1" fill="#F17300"/>
<rect x="13" y="16" width="1" height="1" fill="#F17300"/>
<rect x="14" y="16" width="1" height="1" fill="#F17300"/>
<rect x="16" y="16" width="1" height="1" fill="#F17300"/>
<rect x="17" y="16" width="1" height="1" fill="#F17300"/>
<rect x="18" y="16" width="1" height="1" fill="#F17300"/>
<rect x="19" y="16" width="1" height="1" fill="#F17300"/>
<rect x="20" y="16" width="1" height="1" fill="#F17300"/>
<rect x="23" y="16" width="1" height="1" fill="#F17300"/>
<rect x="8" y="17" width="1" height="1" fill="#F17300"/>
<rect x="10" y="17" width="1" height="1" fill="#F17300"/>
<rect x="13" y="17" width="1" height="1" fill="#F17300"/>
<rect x="16" y="17" width="1" height="1" fill="#F17300"/>
<rect x="20" y="17" width="1" height="1" fill="#F17300"/>
<rect x="24" y="17" width="1" height="1" fill="#F17300"/>
<rect x="0" y="18" width="1" height="1" fill="#F17300"/>
<rect x="1" y="18" width="1" height="1" fill="#F17300"/>
<rect x="2" y="18" width="1" height="1" fill="#F17300"/>
<rect x="3" y="18" width="1" height="1" fill="#F17300"/>
<rect x="4" y="18" width="1" height="1" fill="#F17300"/>
<rect x="5" y="18" width="1" height="1" fill="#F17300"/>
<rect x="6" y="18" width="1" height="1" fill="#F17300"/>
<rect x="8" y="18" width="1" height="1" fill="#F17300"/>
<rect x="11" y="18" width="1" height="1" fill="#F17300"/>
<rect x="16" y="18" width="1" height="1" fill="#F17300"/>
<rect x="18" y="18" width="1" height="1" fill="#F17300"/>
<rect x="20" y="18" width="1" height="1" fill="#F17300"/>
<rect x="24" y="18" width="1" height="1" fill="#F17300"/>
<rect x="0" y="19" width="1" height="1" fill="#F17300"/>
<rect x="6" y="19" width="1" height="1" fill="#F17300"/>
<rect x="9" y="19" width="1" height="1" fill="#F17300"/>
<rect x="13" y="19" width="1" height="1" fill="#F17300"/>
<rect x="15" y="19" width="1" height="1" fill="#F17300"/>
<rect x="16" y="19" width="1" height="1" fill="#F17300"/>
<rect x="20" y="19" width="1" height="1" fill="#F17300"/>
<rect x="23" y="19" width="1" height="1" fill="#F17300"/>
<rect x="0" y="20" width="1" height="1" fill="#F17300"/>
<rect x="2" y="20" width="1" height="1" fill="#F17300"/>
<rect x="3" y="20" width="1" height="1" fill="#F17300"/>
<rect x="4" y="20" width="1" height="1" fill="#F17300"/>
<rect x="6" y="20" width="1" height="1" fill="#F17300"/>
<rect x="11" y="20" width="1" height="1" fill="#F17300"/>
<rect x="12" y="20" width="1" height="1" fill="#F17300"/>
<rect x="13" y="20" width="1" height="1" fill="#F17300"/>
<rect x="15" y="20" width="1" height="1" fill="#F17300"/>
<rect x="16" y="20" width="1" height="1" fill="#F17300"/>
<rect x="17" y="20" width="1" height="1" fill="#F17300"/>
<rect x="18" y="20" width="1" height="1" fill="#F17300"/>
<rect x="19" y="20" width="1" height="1" fill="#F17300"/>
<rect x="20" y="20" width="1" height="1" fill="#F17300"/>
<rect x="24" y="20" width="1" height="1" fill="#F17300"/>
<rect x="0" y="21" width="1" height="1" fill="#F17300"/>
<rect x="2" y="21" width="1" height="1" fill="#F17300"/>
<rect x="3" y="21" width="1" height="1" fill="#F17300"/>
<rect x="4" y="21" width="1" height="1" fill="#F17300"/>
<rect x="6" y="21" width="1" height="1" fill="#F17300"/>
<rect x="10" y="21" width="1" height="1" fill="#F17300"/>
<rect x="12" y="21" width="1" height="1" fill="#F17300"/>
<rect x="17" y="21" width="1" height="1" fill="#F17300"/>
<rect x="20" y="21" width="1" height="1" fill="#F17300"/>
<rect x="22" y="21" width="1" height="1" fill="#F17300"/>
<rect x="23" y="21" width="1" height="1" fill="#F17300"/>
<rect x="0" y="22" width="1" height="1" fill="#F17300"/>
<rect x="2" y="22" width="1" height="1" fill="#F17300"/>
<rect x="3" y="22" width="1" height="1" fill="#F17300"/>
<rect x="4" y="22" width="1" height="1" fill="#F17300"/>
<rect x="6" y="22" width="1" height="1" fill="#F17300"/>
<rect x="8" y="22" width="1" height="1" fill="#F17300"/>
<rect x="9" y="22" width="1" height="1" fill="#F17300"/>
<rect x="10" y="22" width="1" height="1" fill="#F17300"/>
<rect x="12" y="22" width="1" height="1" fill="#F17300"/>
<rect x="13" y="22" width="1" height="1" fill="#F17300"/>
<rect x="14" y="22" width="1" height="1" fill="#F17300"/>
<rect x="17" y="22" width="1" height="1" fill="#F17300"/>
<rect x="19" y="22" width="1" height="1" fill="#F17300"/>
<rect x="20" y="22" width="1" height="1" fill="#F17300"/>
<rect x="21" y="22" width="1" height="1" fill="#F17300"/>
<rect x="23" y="22" width="1" height="1" fill="#F17300"/>
<rect x="24" y="22" width="1" height="1" fill="#F17300"/>
<rect x="0" y="23" width="1" height="1" fill="#F17300"/>
<rect x="6" y="23" width="1" height="1" fill="#F17300"/>
<rect x="9" y="23" width="1" height="1" fill="#F17300"/>
<rect x="10" y="23" width="1" height="1" fill="#F17300"/>
<rect x="11" y="23" width="1" height="1" fill="#F17300"/>
<rect x="12" y="23" width="1" height="1" fill="#F17300"/>
<rect x="14" y="23" width="1" height="1" fill="#F17300"/>
<rect x="16" y="23" width="1" height="1" fill="#F17300"/>
<rect x="19" y="23" width="1" height="1" fill="#F17300"/>
<rect x="20" y="23" width="1" height="1" fill="#F17300"/>
<rect x="0" y="24" width="1" height="1" fill="#F17300"/>
<rect x="1" y="24" width="1" height="1" fill="#F17300"/>
<rect x="2" y="24" width="1" height="1" fill="#F17300"/>
<rect x="3" y="24" width="1" height="1" fill="#F17300"/>
<rect x="4" y="24" width="1" height="1" fill="#F17300"/>
<rect x="5" y="24" width="1" height="1" fill="#F17300"/>
<rect x="6" y="24" width="1" height="1" fill="#F17300"/>
<rect x="8" y="24" width="1" height="1" fill="#F17300"/>
<rect x="9" y="24" width="1" height="1" fill="#F17300"/>
<rect x="10" y="24" width="1" height="1" fill="#F17300"/>
<rect x="13" y="24" width="1" height="1" fill="#F17300"/>
<rect x="14" y="24" width="1" height="1" fill="#F17300"/>
<rect x="16" y="24" width="1" height="1" fill="#F17300"/>
<rect x="17" y="24" width="1" height="1" fill="#F17300"/>
<rect x="21" y="24" width="1" height="1" fill="#F17300"/>
<rect x="24" y="24" width="1" height="1" fill="#F17300"/>
  </g>

  <!-- URL below QR -->
  <text x="1275" y="2120" font-family="Oswald, sans-serif" font-weight="700" font-size="64" fill="#F17300" letter-spacing="6" text-anchor="middle">DUMBLIFTS.COM</text>

  <!-- Divider -->
  <line x1="600" y1="2220" x2="1950" y2="2220" stroke="#1a1a1a" stroke-width="2"/>

  <!-- Bottom line -->
  <text x="1275" y="2340" font-family="Source Sans 3, sans-serif" font-weight="400" font-size="32" fill="#d0c8b8" text-anchor="middle" letter-spacing="2">Push. Pull. Legs. Repeat. Get stronger.</text>

  <!-- Small dumbbell icon centered at very bottom as a mark -->
  <g transform="translate(1207, 2500) scale(0.6)">
    <rect x="62" y="68" width="70" height="14" rx="7" fill="#F17300" opacity="0.25"/>
    <rect x="34" y="42" width="36" height="66" rx="7" fill="#F17300" opacity="0.25"/>
    <rect x="14" y="50" width="28" height="50" rx="5" fill="#F17300" opacity="0.25"/>
    <rect x="124" y="42" width="36" height="66" rx="7" fill="#F17300" opacity="0.25"/>
    <rect x="152" y="50" width="28" height="50" rx="5" fill="#F17300" opacity="0.25"/>
  </g>
</svg>