<svg xmlns="http://www.w3.org/2000/svg" viewBox="0 0 3300 2550" width="3300" height="2550">
  <!-- Background -->
  <rect width="3300" height="2550" fill="#000000"/>

  <!-- Logo: centered top -->
  <g transform="translate(914, 100) scale(2)">
    <rect x="62" y="68" width="70" height="14" rx="7" fill="#F17300"/>
    <rect x="34" y="42" width="36" height="66" rx="7" fill="#F17300"/>
    <rect x="14" y="50" width="28" height="50" rx="5" fill="#F17300"/>
    <rect x="124" y="42" width="36" height="66" rx="7" fill="#F17300"/>
    <rect x="152" y="50" width="28" height="50" rx="5" fill="#F17300"/>
    <rect x="208" y="36" width="4" height="78" rx="2" fill="#F17300" opacity="0.4"/>
    <text x="240" y="110" font-family="Oswald, sans-serif" font-weight="700" font-size="78" fill="#F17300" letter-spacing="8">DUMBLIFTS</text>
  </g>

  <!-- Tagline -->
  <text x="1650" y="360" font-family="Oswald, sans-serif" font-weight="400" font-size="36" fill="#FFFFFF" letter-spacing="8" text-anchor="middle">LIFT STUPID HEAVY</text>

  <!-- Top divider -->
  <line x1="400" y1="420" x2="2900" y2="420" stroke="#1a1a1a" stroke-width="2"/>

  <!-- Vertical divider between columns -->
  <line x1="1600" y1="480" x2="1600" y2="1500" stroke="#1a1a1a" stroke-width="1"/>

  <!-- LEFT COLUMN: copy + badges (centered at x=870) -->
  <text x="870" y="620" font-family="Oswald, sans-serif" font-weight="600" font-size="46" fill="#FFFFFF" letter-spacing="2" text-anchor="middle">FREE DUMBBELL</text>
  <text x="870" y="680" font-family="Oswald, sans-serif" font-weight="600" font-size="46" fill="#FFFFFF" letter-spacing="2" text-anchor="middle">WORKOUT TRACKER</text>

  <text x="870" y="790" font-family="Source Sans 3, sans-serif" font-weight="500" font-size="34" fill="#d0c8b8" text-anchor="middle">Tap sets. Log weight.</text>
  <text x="870" y="840" font-family="Source Sans 3, sans-serif" font-weight="500" font-size="34" fill="#d0c8b8" text-anchor="middle">Track progress.</text>
  <text x="870" y="920" font-family="Source Sans 3, sans-serif" font-weight="500" font-size="34" fill="#d0c8b8" text-anchor="middle">No account needed. Works offline.</text>

  <!-- Feature badges -->
  <g>
    <rect x="460" y="1010" width="240" height="56" rx="28" fill="none" stroke="#F17300" stroke-width="2"/>
    <text x="580" y="1047" font-family="Oswald, sans-serif" font-weight="600" font-size="28" fill="#F17300" letter-spacing="4" text-anchor="middle">FREE</text>

    <rect x="750" y="1010" width="240" height="56" rx="28" fill="none" stroke="#7A8B8B" stroke-width="2"/>
    <text x="870" y="1047" font-family="Oswald, sans-serif" font-weight="600" font-size="28" fill="#7A8B8B" letter-spacing="4" text-anchor="middle">OFFLINE</text>

    <rect x="1040" y="1010" width="260" height="56" rx="28" fill="none" stroke="#C4A035" stroke-width="2"/>
    <text x="1170" y="1047" font-family="Oswald, sans-serif" font-weight="600" font-size="28" fill="#C4A035" letter-spacing="4" text-anchor="middle">NO SIGNUP</text>
  </g>

  <!-- RIGHT COLUMN: QR code (centered at x=2380) -->
  <g transform="translate(2055, 480) scale(26)">
    <rect x="0" y="0" width="1" height="1" fill="#F17300"/>
<rect x="1" y="0" width="1" height="1" fill="#F17300"/>
<rect x="2" y="0" width="1" height="1" fill="#F17300"/>
<rect x="3" y="0" width="1" height="1" fill="#F17300"/>
<rect x="4" y="0" width="1" height="1" fill="#F17300"/>
<rect x="5" y="0" width="1" height="1" fill="#F17300"/>
<rect x="6" y="0" width="1" height="1" fill="#F17300"/>
<rect x="8" y="0" width="1" height="1" fill="#F17300"/>
<rect x="9" y="0" width="1" height="1" fill="#F17300"/>
<rect x="10" y="0" width="1" height="1" fill="#F17300"/>
<rect x="11" y="0" width="1" height="1" fill="#F17300"/>
<rect x="14" y="0" width="1" height="1" fill="#F17300"/>
<rect x="16" y="0" width="1" height="1" fill="#F17300"/>
<rect x="18" y="0" width="1" height="1" fill="#F17300"/>
<rect x="19" y="0" width="1" height="1" fill="#F17300"/>
<rect x="20" y="0" width="1" height="1" fill="#F17300"/>
<rect x="21" y="0" width="1" height="1" fill="#F17300"/>
<rect x="22" y="0" width="1" height="1" fill="#F17300"/>
<rect x="23" y="0" width="1" height="1" fill="#F17300"/>
<rect x="24" y="0" width="1" height="1" fill="#F17300"/>
<rect x="0" y="1" width="1" height="1" fill="#F17300"/>
<rect x="6" y="1" width="1" height="1" fill="#F17300"/>
<rect x="9" y="1" width="1" height="1" fill="#F17300"/>
<rect x="11" y="1" width="1" height="1" fill="#F17300"/>
<rect x="13" y="1" width="1" height="1" fill="#F17300"/>
<rect x="14" y="1" width="1" height="1" fill="#F17300"/>
<rect x="16" y="1" width="1" height="1" fill="#F17300"/>
<rect x="18" y="1" width="1" height="1" fill="#F17300"/>
<rect x="24" y="1" width="1" height="1" fill="#F17300"/>
<rect x="0" y="2" width="1" height="1" fill="#F17300"/>
<rect x="2" y="2" width="1" height="1" fill="#F17300"/>
<rect x="3" y="2" width="1" height="1" fill="#F17300"/>
<rect x="4" y="2" width="1" height="1" fill="#F17300"/>
<rect x="6" y="2" width="1" height="1" fill="#F17300"/>
<rect x="8" y="2" width="1" height="1" fill="#F17300"/>
<rect x="9" y="2" width="1" height="1" fill="#F17300"/>
<rect x="12" y="2" width="1" height="1" fill="#F17300"/>
<rect x="13" y="2" width="1" height="1" fill="#F17300"/>
<rect x="14" y="2" width="1" height="1" fill="#F17300"/>
<rect x="16" y="2" width="1" height="1" fill="#F17300"/>
<rect x="18" y="2" width="1" height="1" fill="#F17300"/>
<rect x="20" y="2" width="1" height="1" fill="#F17300"/>
<rect x="21" y="2" width="1" height="1" fill="#F17300"/>
<rect x="22" y="2" width="1" height="1" fill="#F17300"/>
<rect x="24" y="2" width="1" height="1" fill="#F17300"/>
<rect x="0" y="3" width="1" height="1" fill="#F17300"/>
<rect x="2" y="3" width="1" height="1" fill="#F17300"/>
<rect x="3" y="3" width="1" height="1" fill="#F17300"/>
<rect x="4" y="3" width="1" height="1" fill="#F17300"/>
<rect x="6" y="3" width="1" height="1" fill="#F17300"/>
<rect x="10" y="3" width="1" height="1" fill="#F17300"/>
<rect x="12" y="3" width="1" height="1" fill="#F17300"/>
<rect x="13" y="3" width="1" height="1" fill="#F17300"/>
<rect x="14" y="3" width="1" height="1" fill="#F17300"/>
<rect x="16" y="3" width="1" height="1" fill="#F17300"/>
<rect x="18" y="3" width="1" height="1" fill="#F17300"/>
<rect x="20" y="3" width="1" height="1" fill="#F17300"/>
<rect x="21" y="3" width="1" height="1" fill="#F17300"/>
<rect x="22" y="3" width="1" height="1" fill="#F17300"/>
<rect x="24" y="3" width="1" height="1" fill="#F17300"/>
<rect x="0" y="4" width="1" height="1" fill="#F17300"/>
<rect x="2" y="4" width="1" height="1" fill="#F17300"/>
<rect x="3" y="4" width="1" height="1" fill="#F17300"/>
<rect x="4" y="4" width="1" height="1" fill="#F17300"/>
<rect x="6" y="4" width="1" height="1" fill="#F17300"/>
<rect x="10" y="4" width="1" height="1" fill="#F17300"/>
<rect x="12" y="4" width="1" height="1" fill="#F17300"/>
<rect x="13" y="4" width="1" height="1" fill="#F17300"/>
<rect x="14" y="4" width="1" height="1" fill="#F17300"/>
<rect x="18" y="4" width="1" height="1" fill="#F17300"/>
<rect x="20" y="4" width="1" height="1" fill="#F17300"/>
<rect x="21" y="4" width="1" height="1" fill="#F17300"/>
<rect x="22" y="4" width="1" height="1" fill="#F17300"/>
<rect x="24" y="4" width="1" height="1" fill="#F17300"/>
<rect x="0" y="5" width="1" height="1" fill="#F17300"/>
<rect x="6" y="5" width="1" height="1" fill="#F17300"/>
<rect x="8" y="5" width="1" height="1" fill="#F17300"/>
<rect x="9" y="5" width="1" height="1" fill="#F17300"/>
<rect x="10" y="5" width="1" height="1" fill="#F17300"/>
<rect x="11" y="5" width="1" height="1" fill="#F17300"/>
<rect x="12" y="5" width="1" height="1" fill="#F17300"/>
<rect x="13" y="5" width="1" height="1" fill="#F17300"/>
<rect x="18" y="5" width="1" height="1" fill="#F17300"/>
<rect x="24" y="5" width="1" height="1" fill="#F17300"/>
<rect x="0" y="6" width="1" height="1" fill="#F17300"/>
<rect x="1" y="6" width="1" height="1" fill="#F17300"/>
<rect x="2" y="6" width="1" height="1" fill="#F17300"/>
<rect x="3" y="6" width="1" height="1" fill="#F17300"/>
<rect x="4" y="6" width="1" height="1" fill="#F17300"/>
<rect x="5" y="6" width="1" height="1" fill="#F17300"/>
<rect x="6" y="6" width="1" height="1" fill="#F17300"/>
<rect x="8" y="6" width="1" height="1" fill="#F17300"/>
<rect x="10" y="6" width="1" height="1" fill="#F17300"/>
<rect x="12" y="6" width="1" height="1" fill="#F17300"/>
<rect x="14" y="6" width="1" height="1" fill="#F17300"/>
<rect x="16" y="6" width="1" height="1" fill="#F17300"/>
<rect x="18" y="6" width="1" height="1" fill="#F17300"/>
<rect x="19" y="6" width="1" height="1" fill="#F17300"/>
<rect x="20" y="6" width="1" height="1" fill="#F17300"/>
<rect x="21" y="6" width="1" height="1" fill="#F17300"/>
<rect x="22" y="6" width="1" height="1" fill="#F17300"/>
<rect x="23" y="6" width="1" height="1" fill="#F17300"/>
<rect x="24" y="6" width="1" height="1" fill="#F17300"/>
<rect x="9" y="7" width="1" height="1" fill="#F17300"/>
<rect x="14" y="7" width="1" height="1" fill="#F17300"/>
<rect x="16" y="7" width="1" height="1" fill="#F17300"/>
<rect x="0" y="8" width="1" height="1" fill="#F17300"/>
<rect x="2" y="8" width="1" height="1" fill="#F17300"/>
<rect x="6" y="8" width="1" height="1" fill="#F17300"/>
<rect x="7" y="8" width="1" height="1" fill="#F17300"/>
<rect x="9" y="8" width="1" height="1" fill="#F17300"/>
<rect x="10" y="8" width="1" height="1" fill="#F17300"/>
<rect x="12" y="8" width="1" height="1" fill="#F17300"/>
<rect x="15" y="8" width="1" height="1" fill="#F17300"/>
<rect x="19" y="8" width="1" height="1" fill="#F17300"/>
<rect x="22" y="8" width="1" height="1" fill="#F17300"/>
<rect x="24" y="8" width="1" height="1" fill="#F17300"/>
<rect x="2" y="9" width="1" height="1" fill="#F17300"/>
<rect x="3" y="9" width="1" height="1" fill="#F17300"/>
<rect x="4" y="9" width="1" height="1" fill="#F17300"/>
<rect x="5" y="9" width="1" height="1" fill="#F17300"/>
<rect x="7" y="9" width="1" height="1" fill="#F17300"/>
<rect x="9" y="9" width="1" height="1" fill="#F17300"/>
<rect x="11" y="9" width="1" height="1" fill="#F17300"/>
<rect x="13" y="9" width="1" height="1" fill="#F17300"/>
<rect x="15" y="9" width="1" height="1" fill="#F17300"/>
<rect x="16" y="9" width="1" height="1" fill="#F17300"/>
<rect x="17" y="9" width="1" height="1" fill="#F17300"/>
<rect x="18" y="9" width="1" height="1" fill="#F17300"/>
<rect x="19" y="9" width="1" height="1" fill="#F17300"/>
<rect x="21" y="9" width="1" height="1" fill="#F17300"/>
<rect x="23" y="9" width="1" height="1" fill="#F17300"/>
<rect x="24" y="9" width="1" height="1" fill="#F17300"/>
<rect x="0" y="10" width="1" height="1" fill="#F17300"/>
<rect x="1" y="10" width="1" height="1" fill="#F17300"/>
<rect x="2" y="10" width="1" height="1" fill="#F17300"/>
<rect x="6" y="10" width="1" height="1" fill="#F17300"/>
<rect x="8" y="10" width="1" height="1" fill="#F17300"/>
<rect x="11" y="10" width="1" height="1" fill="#F17300"/>
<rect x="12" y="10" width="1" height="1" fill="#F17300"/>
<rect x="15" y="10" width="1" height="1" fill="#F17300"/>
<rect x="16" y="10" width="1" height="1" fill="#F17300"/>
<rect x="18" y="10" width="1" height="1" fill="#F17300"/>
<rect x="19" y="10" width="1" height="1" fill="#F17300"/>
<rect x="20" y="10" width="1" height="1" fill="#F17300"/>
<rect x="21" y="10" width="1" height="1" fill="#F17300"/>
<rect x="22" y="10" width="1" height="1" fill="#F17300"/>
<rect x="24" y="10" width="1" height="1" fill="#F17300"/>
<rect x="2" y="11" width="1" height="1" fill="#F17300"/>
<rect x="3" y="11" width="1" height="1" fill="#F17300"/>
<rect x="5" y="11" width="1" height="1" fill="#F17300"/>
<rect x="7" y="11" width="1" height="1" fill="#F17300"/>
<rect x="9" y="11" width="1" height="1" fill="#F17300"/>
<rect x="10" y="11" width="1" height="1" fill="#F17300"/>
<rect x="11" y="11" width="1" height="1" fill="#F17300"/>
<rect x="14" y="11" width="1" height="1" fill="#F17300"/>
<rect x="15" y="11" width="1" height="1" fill="#F17300"/>
<rect x="16" y="11" width="1" height="1" fill="#F17300"/>
<rect x="17" y="11" width="1" height="1" fill="#F17300"/>
<rect x="19" y="11" width="1" height="1" fill="#F17300"/>
<rect x="21" y="11" width="1" height="1" fill="#F17300"/>
<rect x="0" y="12" width="1" height="1" fill="#F17300"/>
<rect x="1" y="12" width="1" height="1" fill="#F17300"/>
<rect x="2" y="12" width="1" height="1" fill="#F17300"/>
<rect x="6" y="12" width="1" height="1" fill="#F17300"/>
<rect x="10" y="12" width="1" height="1" fill="#F17300"/>
<rect x="11" y="12" width="1" height="1" fill="#F17300"/>
<rect x="12" y="12" width="1" height="1" fill="#F17300"/>
<rect x="15" y="12" width="1" height="1" fill="#F17300"/>
<rect x="16" y="12" width="1" height="1" fill="#F17300"/>
<rect x="18" y="12" width="1" height="1" fill="#F17300"/>
<rect x="19" y="12" width="1" height="1" fill="#F17300"/>
<rect x="24" y="12" width="1" height="1" fill="#F17300"/>
<rect x="2" y="13" width="1" height="1" fill="#F17300"/>
<rect x="3" y="13" width="1" height="1" fill="#F17300"/>
<rect x="8" y="13" width="1" height="1" fill="#F17300"/>
<rect x="9" y="13" width="1" height="1" fill="#F17300"/>
<rect x="12" y="13" width="1" height="1" fill="#F17300"/>
<rect x="13" y="13" width="1" height="1" fill="#F17300"/>
<rect x="15" y="13" width="1" height="1" fill="#F17300"/>
<rect x="16" y="13" width="1" height="1" fill="#F17300"/>
<rect x="18" y="13" width="1" height="1" fill="#F17300"/>
<rect x="19" y="13" width="1" height="1" fill="#F17300"/>
<rect x="23" y="13" width="1" height="1" fill="#F17300"/>
<rect x="24" y="13" width="1" height="1" fill="#F17300"/>
<rect x="0" y="14" width="1" height="1" fill="#F17300"/>
<rect x="1" y="14" width="1" height="1" fill="#F17300"/>
<rect x="3" y="14" width="1" height="1" fill="#F17300"/>
<rect x="5" y="14" width="1" height="1" fill="#F17300"/>
<rect x="6" y="14" width="1" height="1" fill="#F17300"/>
<rect x="9" y="14" width="1" height="1" fill="#F17300"/>
<rect x="10" y="14" width="1" height="1" fill="#F17300"/>
<rect x="12" y="14" width="1" height="1" fill="#F17300"/>
<rect x="13" y="14" width="1" height="1" fill="#F17300"/>
<rect x="15" y="14" width="1" height="1" fill="#F17300"/>
<rect x="21" y="14" width="1" height="1" fill="#F17300"/>
<rect x="22" y="14" width="1" height="1" fill="#F17300"/>
<rect x="24" y="14" width="1" height="1" fill="#F17300"/>
<rect x="3" y="15" width="1" height="1" fill="#F17300"/>
<rect x="4" y="15" width="1" height="1" fill="#F17300"/>
<rect x="5" y="15" width="1" height="1" fill="#F17300"/>
<rect x="7" y="15" width="1" height="1" fill="#F17300"/>
<rect x="9" y="15" width="1" height="1" fill="#F17300"/>
<rect x="10" y="15" width="1" height="1" fill="#F17300"/>
<rect x="11" y="15" width="1" height="1" fill="#F17300"/>
<rect x="12" y="15" width="1" height="1" fill="#F17300"/>
<rect x="14" y="15" width="1" height="1" fill="#F17300"/>
<rect x="17" y="15" width="1" height="1" fill="#F17300"/>
<rect x="19" y="15" width="1" height="1" fill="#F17300"/>
<rect x="20" y="15" width="1" height="1" fill="#F17300"/>
<rect x="21" y="15" width="1" height="1" fill="#F17300"/>
<rect x="0" y="16" width="1" height="1" fill="#F17300"/>
<rect x="1" y="16" width="1" height="1" fill="#F17300"/>
<rect x="3" y="16" width="1" height="1" fill="#F17300"/>
<rect x="4" y="16" width="1" height="1" fill="#F17300"/>
<rect x="5" y="16" width="1" height="1" fill="#F17300"/>
<rect x="6" y="16" width="1" height="1" fill="#F17300"/>
<rect x="7" y="16" width="1" height="1" fill="#F17300"/>
<rect x="13" y="16" width="1" height="1" fill="#F17300"/>
<rect x="14" y="16" width="1" height="1" fill="#F17300"/>
<rect x="16" y="16" width="1" height="1" fill="#F17300"/>
<rect x="17" y="16" width="1" height="1" fill="#F17300"/>
<rect x="18" y="16" width="1" height="1" fill="#F17300"/>
<rect x="19" y="16" width="1" height="1" fill="#F17300"/>
<rect x="20" y="16" width="1" height="1" fill="#F17300"/>
<rect x="23" y="16" width="1" height="1" fill="#F17300"/>
<rect x="8" y="17" width="1" height="1" fill="#F17300"/>
<rect x="10" y="17" width="1" height="1" fill="#F17300"/>
<rect x="13" y="17" width="1" height="1" fill="#F17300"/>
<rect x="16" y="17" width="1" height="1" fill="#F17300"/>
<rect x="20" y="17" width="1" height="1" fill="#F17300"/>
<rect x="24" y="17" width="1" height="1" fill="#F17300"/>
<rect x="0" y="18" width="1" height="1" fill="#F17300"/>
<rect x="1" y="18" width="1" height="1" fill="#F17300"/>
<rect x="2" y="18" width="1" height="1" fill="#F17300"/>
<rect x="3" y="18" width="1" height="1" fill="#F17300"/>
<rect x="4" y="18" width="1" height="1" fill="#F17300"/>
<rect x="5" y="18" width="1" height="1" fill="#F17300"/>
<rect x="6" y="18" width="1" height="1" fill="#F17300"/>
<rect x="8" y="18" width="1" height="1" fill="#F17300"/>
<rect x="11" y="18" width="1" height="1" fill="#F17300"/>
<rect x="16" y="18" width="1" height="1" fill="#F17300"/>
<rect x="18" y="18" width="1" height="1" fill="#F17300"/>
<rect x="20" y="18" width="1" height="1" fill="#F17300"/>
<rect x="24" y="18" width="1" height="1" fill="#F17300"/>
<rect x="0" y="19" width="1" height="1" fill="#F17300"/>
<rect x="6" y="19" width="1" height="1" fill="#F17300"/>
<rect x="9" y="19" width="1" height="1" fill="#F17300"/>
<rect x="13" y="19" width="1" height="1" fill="#F17300"/>
<rect x="15" y="19" width="1" height="1" fill="#F17300"/>
<rect x="16" y="19" width="1" height="1" fill="#F17300"/>
<rect x="20" y="19" width="1" height="1" fill="#F17300"/>
<rect x="23" y="19" width="1" height="1" fill="#F17300"/>
<rect x="0" y="20" width="1" height="1" fill="#F17300"/>
<rect x="2" y="20" width="1" height="1" fill="#F17300"/>
<rect x="3" y="20" width="1" height="1" fill="#F17300"/>
<rect x="4" y="20" width="1" height="1" fill="#F17300"/>
<rect x="6" y="20" width="1" height="1" fill="#F17300"/>
<rect x="11" y="20" width="1" height="1" fill="#F17300"/>
<rect x="12" y="20" width="1" height="1" fill="#F17300"/>
<rect x="13" y="20" width="1" height="1" fill="#F17300"/>
<rect x="15" y="20" width="1" height="1" fill="#F17300"/>
<rect x="16" y="20" width="1" height="1" fill="#F17300"/>
<rect x="17" y="20" width="1" height="1" fill="#F17300"/>
<rect x="18" y="20" width="1" height="1" fill="#F17300"/>
<rect x="19" y="20" width="1" height="1" fill="#F17300"/>
<rect x="20" y="20" width="1" height="1" fill="#F17300"/>
<rect x="24" y="20" width="1" height="1" fill="#F17300"/>
<rect x="0" y="21" width="1" height="1" fill="#F17300"/>
<rect x="2" y="21" width="1" height="1" fill="#F17300"/>
<rect x="3" y="21" width="1" height="1" fill="#F17300"/>
<rect x="4" y="21" width="1" height="1" fill="#F17300"/>
<rect x="6" y="21" width="1" height="1" fill="#F17300"/>
<rect x="10" y="21" width="1" height="1" fill="#F17300"/>
<rect x="12" y="21" width="1" height="1" fill="#F17300"/>
<rect x="17" y="21" width="1" height="1" fill="#F17300"/>
<rect x="20" y="21" width="1" height="1" fill="#F17300"/>
<rect x="22" y="21" width="1" height="1" fill="#F17300"/>
<rect x="23" y="21" width="1" height="1" fill="#F17300"/>
<rect x="0" y="22" width="1" height="1" fill="#F17300"/>
<rect x="2" y="22" width="1" height="1" fill="#F17300"/>
<rect x="3" y="22" width="1" height="1" fill="#F17300"/>
<rect x="4" y="22" width="1" height="1" fill="#F17300"/>
<rect x="6" y="22" width="1" height="1" fill="#F17300"/>
<rect x="8" y="22" width="1" height="1" fill="#F17300"/>
<rect x="9" y="22" width="1" height="1" fill="#F17300"/>
<rect x="10" y="22" width="1" height="1" fill="#F17300"/>
<rect x="12" y="22" width="1" height="1" fill="#F17300"/>
<rect x="13" y="22" width="1" height="1" fill="#F17300"/>
<rect x="14" y="22" width="1" height="1" fill="#F17300"/>
<rect x="17" y="22" width="1" height="1" fill="#F17300"/>
<rect x="19" y="22" width="1" height="1" fill="#F17300"/>
<rect x="20" y="22" width="1" height="1" fill="#F17300"/>
<rect x="21" y="22" width="1" height="1" fill="#F17300"/>
<rect x="23" y="22" width="1" height="1" fill="#F17300"/>
<rect x="24" y="22" width="1" height="1" fill="#F17300"/>
<rect x="0" y="23" width="1" height="1" fill="#F17300"/>
<rect x="6" y="23" width="1" height="1" fill="#F17300"/>
<rect x="9" y="23" width="1" height="1" fill="#F17300"/>
<rect x="10" y="23" width="1" height="1" fill="#F17300"/>
<rect x="11" y="23" width="1" height="1" fill="#F17300"/>
<rect x="12" y="23" width="1" height="1" fill="#F17300"/>
<rect x="14" y="23" width="1" height="1" fill="#F17300"/>
<rect x="16" y="23" width="1" height="1" fill="#F17300"/>
<rect x="19" y="23" width="1" height="1" fill="#F17300"/>
<rect x="20" y="23" width="1" height="1" fill="#F17300"/>
<rect x="0" y="24" width="1" height="1" fill="#F17300"/>
<rect x="1" y="24" width="1" height="1" fill="#F17300"/>
<rect x="2" y="24" width="1" height="1" fill="#F17300"/>
<rect x="3" y="24" width="1" height="1" fill="#F17300"/>
<rect x="4" y="24" width="1" height="1" fill="#F17300"/>
<rect x="5" y="24" width="1" height="1" fill="#F17300"/>
<rect x="6" y="24" width="1" height="1" fill="#F17300"/>
<rect x="8" y="24" width="1" height="1" fill="#F17300"/>
<rect x="9" y="24" width="1" height="1" fill="#F17300"/>
<rect x="10" y="24" width="1" height="1" fill="#F17300"/>
<rect x="13" y="24" width="1" height="1" fill="#F17300"/>
<rect x="14" y="24" width="1" height="1" fill="#F17300"/>
<rect x="16" y="24" width="1" height="1" fill="#F17300"/>
<rect x="17" y="24" width="1" height="1" fill="#F17300"/>
<rect x="21" y="24" width="1" height="1" fill="#F17300"/>
<rect x="24" y="24" width="1" height="1" fill="#F17300"/>
  </g>

  <!-- URL below QR -->
  <text x="2380" y="1280" font-family="Oswald, sans-serif" font-weight="700" font-size="56" fill="#F17300" letter-spacing="6" text-anchor="middle">DUMBLIFTS.COM</text>

  <!-- Bottom divider -->
  <line x1="400" y1="1600" x2="2900" y2="1600" stroke="#1a1a1a" stroke-width="2"/>

  <!-- App action words -->
  <g>
    <text x="900" y="1880" font-family="Oswald, sans-serif" font-weight="700" font-size="180" fill="#F17300" text-anchor="middle">TAP</text>
    <text x="900" y="1940" font-family="Oswald, sans-serif" font-weight="400" font-size="26" fill="#7A8B8B" letter-spacing="6" text-anchor="middle">SETS</text>

    <circle cx="1275" cy="1820" r="5" fill="#1a1a1a"/>

    <text x="1650" y="1880" font-family="Oswald, sans-serif" font-weight="700" font-size="180" fill="#F17300" text-anchor="middle">LOG</text>
    <text x="1650" y="1940" font-family="Oswald, sans-serif" font-weight="400" font-size="26" fill="#7A8B8B" letter-spacing="6" text-anchor="middle">WEIGHT</text>

    <circle cx="2025" cy="1820" r="5" fill="#1a1a1a"/>

    <text x="2400" y="1880" font-family="Oswald, sans-serif" font-weight="700" font-size="180" fill="#F17300" text-anchor="middle">LIFT</text>
    <text x="2400" y="1940" font-family="Oswald, sans-serif" font-weight="400" font-size="26" fill="#7A8B8B" letter-spacing="6" text-anchor="middle">HEAVY</text>
  </g>

  <!-- Bottom divider -->
  <line x1="400" y1="2040" x2="2900" y2="2040" stroke="#1a1a1a" stroke-width="2"/>

  <!-- Bottom tagline -->
  <text x="1650" y="2170" font-family="Source Sans 3, sans-serif" font-weight="500" font-size="32" fill="#d0c8b8" text-anchor="middle" letter-spacing="2">Scan the code. Start lifting.</text>

  <!-- Dumbbell watermark -->
  <g transform="translate(1582, 2280) scale(0.6)">
    <rect x="62" y="68" width="70" height="14" rx="7" fill="#F17300" opacity="0.25"/>
    <rect x="34" y="42" width="36" height="66" rx="7" fill="#F17300" opacity="0.25"/>
    <rect x="14" y="50" width="28" height="50" rx="5" fill="#F17300" opacity="0.25"/>
    <rect x="124" y="42" width="36" height="66" rx="7" fill="#F17300" opacity="0.25"/>
    <rect x="152" y="50" width="28" height="50" rx="5" fill="#F17300" opacity="0.25"/>
  </g>
</svg>
