<svg xmlns="http://www.w3.org/2000/svg" viewBox="0 0 900 900" width="900" height="900">
  <!-- Background -->
  <rect width="900" height="900" fill="#000000"/>

  <!-- Thin orange border inset -->
  <rect x="12" y="12" width="876" height="876" rx="8" fill="none" stroke="#F17300" stroke-width="3"/>

  <!-- DUMBLIFTS wordmark top center -->
  <text x="450" y="105" font-family="Oswald, sans-serif" font-weight="700" font-size="72" fill="#F17300" letter-spacing="6" text-anchor="middle">DUMBLIFTS</text>

  <!-- Subtle tagline -->
  <text x="450" y="140" font-family="Oswald, sans-serif" font-weight="400" font-size="18" fill="#FFFFFF" letter-spacing="6" text-anchor="middle" opacity="0.6">LIFT STUPID HEAVY</text>

  <!-- QR code - big, centered -->
  <g transform="translate(200, 180) scale(20)">
    <rect x="0" y="0" width="1" height="1" fill="#F17300"/>
<rect x="1" y="0" width="1" height="1" fill="#F17300"/>
<rect x="2" y="0" width="1" height="1" fill="#F17300"/>
<rect x="3" y="0" width="1" height="1" fill="#F17300"/>
<rect x="4" y="0" width="1" height="1" fill="#F17300"/>
<rect x="5" y="0" width="1" height="1" fill="#F17300"/>
<rect x="6" y="0" width="1" height="1" fill="#F17300"/>
<rect x="8" y="0" width="1" height="1" fill="#F17300"/>
<rect x="9" y="0" width="1" height="1" fill="#F17300"/>
<rect x="10" y="0" width="1" height="1" fill="#F17300"/>
<rect x="11" y="0" width="1" height="1" fill="#F17300"/>
<rect x="14" y="0" width="1" height="1" fill="#F17300"/>
<rect x="16" y="0" width="1" height="1" fill="#F17300"/>
<rect x="18" y="0" width="1" height="1" fill="#F17300"/>
<rect x="19" y="0" width="1" height="1" fill="#F17300"/>
<rect x="20" y="0" width="1" height="1" fill="#F17300"/>
<rect x="21" y="0" width="1" height="1" fill="#F17300"/>
<rect x="22" y="0" width="1" height="1" fill="#F17300"/>
<rect x="23" y="0" width="1" height="1" fill="#F17300"/>
<rect x="24" y="0" width="1" height="1" fill="#F17300"/>
<rect x="0" y="1" width="1" height="1" fill="#F17300"/>
<rect x="6" y="1" width="1" height="1" fill="#F17300"/>
<rect x="9" y="1" width="1" height="1" fill="#F17300"/>
<rect x="11" y="1" width="1" height="1" fill="#F17300"/>
<rect x="13" y="1" width="1" height="1" fill="#F17300"/>
<rect x="14" y="1" width="1" height="1" fill="#F17300"/>
<rect x="16" y="1" width="1" height="1" fill="#F17300"/>
<rect x="18" y="1" width="1" height="1" fill="#F17300"/>
<rect x="24" y="1" width="1" height="1" fill="#F17300"/>
<rect x="0" y="2" width="1" height="1" fill="#F17300"/>
<rect x="2" y="2" width="1" height="1" fill="#F17300"/>
<rect x="3" y="2" width="1" height="1" fill="#F17300"/>
<rect x="4" y="2" width="1" height="1" fill="#F17300"/>
<rect x="6" y="2" width="1" height="1" fill="#F17300"/>
<rect x="8" y="2" width="1" height="1" fill="#F17300"/>
<rect x="9" y="2" width="1" height="1" fill="#F17300"/>
<rect x="12" y="2" width="1" height="1" fill="#F17300"/>
<rect x="13" y="2" width="1" height="1" fill="#F17300"/>
<rect x="14" y="2" width="1" height="1" fill="#F17300"/>
<rect x="16" y="2" width="1" height="1" fill="#F17300"/>
<rect x="18" y="2" width="1" height="1" fill="#F17300"/>
<rect x="20" y="2" width="1" height="1" fill="#F17300"/>
<rect x="21" y="2" width="1" height="1" fill="#F17300"/>
<rect x="22" y="2" width="1" height="1" fill="#F17300"/>
<rect x="24" y="2" width="1" height="1" fill="#F17300"/>
<rect x="0" y="3" width="1" height="1" fill="#F17300"/>
<rect x="2" y="3" width="1" height="1" fill="#F17300"/>
<rect x="3" y="3" width="1" height="1" fill="#F17300"/>
<rect x="4" y="3" width="1" height="1" fill="#F17300"/>
<rect x="6" y="3" width="1" height="1" fill="#F17300"/>
<rect x="10" y="3" width="1" height="1" fill="#F17300"/>
<rect x="12" y="3" width="1" height="1" fill="#F17300"/>
<rect x="13" y="3" width="1" height="1" fill="#F17300"/>
<rect x="14" y="3" width="1" height="1" fill="#F17300"/>
<rect x="16" y="3" width="1" height="1" fill="#F17300"/>
<rect x="18" y="3" width="1" height="1" fill="#F17300"/>
<rect x="20" y="3" width="1" height="1" fill="#F17300"/>
<rect x="21" y="3" width="1" height="1" fill="#F17300"/>
<rect x="22" y="3" width="1" height="1" fill="#F17300"/>
<rect x="24" y="3" width="1" height="1" fill="#F17300"/>
<rect x="0" y="4" width="1" height="1" fill="#F17300"/>
<rect x="2" y="4" width="1" height="1" fill="#F17300"/>
<rect x="3" y="4" width="1" height="1" fill="#F17300"/>
<rect x="4" y="4" width="1" height="1" fill="#F17300"/>
<rect x="6" y="4" width="1" height="1" fill="#F17300"/>
<rect x="10" y="4" width="1" height="1" fill="#F17300"/>
<rect x="12" y="4" width="1" height="1" fill="#F17300"/>
<rect x="13" y="4" width="1" height="1" fill="#F17300"/>
<rect x="14" y="4" width="1" height="1" fill="#F17300"/>
<rect x="18" y="4" width="1" height="1" fill="#F17300"/>
<rect x="20" y="4" width="1" height="1" fill="#F17300"/>
<rect x="21" y="4" width="1" height="1" fill="#F17300"/>
<rect x="22" y="4" width="1" height="1" fill="#F17300"/>
<rect x="24" y="4" width="1" height="1" fill="#F17300"/>
<rect x="0" y="5" width="1" height="1" fill="#F17300"/>
<rect x="6" y="5" width="1" height="1" fill="#F17300"/>
<rect x="8" y="5" width="1" height="1" fill="#F17300"/>
<rect x="9" y="5" width="1" height="1" fill="#F17300"/>
<rect x="10" y="5" width="1" height="1" fill="#F17300"/>
<rect x="11" y="5" width="1" height="1" fill="#F17300"/>
<rect x="12" y="5" width="1" height="1" fill="#F17300"/>
<rect x="13" y="5" width="1" height="1" fill="#F17300"/>
<rect x="18" y="5" width="1" height="1" fill="#F17300"/>
<rect x="24" y="5" width="1" height="1" fill="#F17300"/>
<rect x="0" y="6" width="1" height="1" fill="#F17300"/>
<rect x="1" y="6" width="1" height="1" fill="#F17300"/>
<rect x="2" y="6" width="1" height="1" fill="#F17300"/>
<rect x="3" y="6" width="1" height="1" fill="#F17300"/>
<rect x="4" y="6" width="1" height="1" fill="#F17300"/>
<rect x="5" y="6" width="1" height="1" fill="#F17300"/>
<rect x="6" y="6" width="1" height="1" fill="#F17300"/>
<rect x="8" y="6" width="1" height="1" fill="#F17300"/>
<rect x="10" y="6" width="1" height="1" fill="#F17300"/>
<rect x="12" y="6" width="1" height="1" fill="#F17300"/>
<rect x="14" y="6" width="1" height="1" fill="#F17300"/>
<rect x="16" y="6" width="1" height="1" fill="#F17300"/>
<rect x="18" y="6" width="1" height="1" fill="#F17300"/>
<rect x="19" y="6" width="1" height="1" fill="#F17300"/>
<rect x="20" y="6" width="1" height="1" fill="#F17300"/>
<rect x="21" y="6" width="1" height="1" fill="#F17300"/>
<rect x="22" y="6" width="1" height="1" fill="#F17300"/>
<rect x="23" y="6" width="1" height="1" fill="#F17300"/>
<rect x="24" y="6" width="1" height="1" fill="#F17300"/>
<rect x="9" y="7" width="1" height="1" fill="#F17300"/>
<rect x="14" y="7" width="1" height="1" fill="#F17300"/>
<rect x="16" y="7" width="1" height="1" fill="#F17300"/>
<rect x="0" y="8" width="1" height="1" fill="#F17300"/>
<rect x="2" y="8" width="1" height="1" fill="#F17300"/>
<rect x="6" y="8" width="1" height="1" fill="#F17300"/>
<rect x="7" y="8" width="1" height="1" fill="#F17300"/>
<rect x="9" y="8" width="1" height="1" fill="#F17300"/>
<rect x="10" y="8" width="1" height="1" fill="#F17300"/>
<rect x="12" y="8" width="1" height="1" fill="#F17300"/>
<rect x="15" y="8" width="1" height="1" fill="#F17300"/>
<rect x="19" y="8" width="1" height="1" fill="#F17300"/>
<rect x="22" y="8" width="1" height="1" fill="#F17300"/>
<rect x="24" y="8" width="1" height="1" fill="#F17300"/>
<rect x="2" y="9" width="1" height="1" fill="#F17300"/>
<rect x="3" y="9" width="1" height="1" fill="#F17300"/>
<rect x="4" y="9" width="1" height="1" fill="#F17300"/>
<rect x="5" y="9" width="1" height="1" fill="#F17300"/>
<rect x="7" y="9" width="1" height="1" fill="#F17300"/>
<rect x="9" y="9" width="1" height="1" fill="#F17300"/>
<rect x="11" y="9" width="1" height="1" fill="#F17300"/>
<rect x="13" y="9" width="1" height="1" fill="#F17300"/>
<rect x="15" y="9" width="1" height="1" fill="#F17300"/>
<rect x="16" y="9" width="1" height="1" fill="#F17300"/>
<rect x="17" y="9" width="1" height="1" fill="#F17300"/>
<rect x="18" y="9" width="1" height="1" fill="#F17300"/>
<rect x="19" y="9" width="1" height="1" fill="#F17300"/>
<rect x="21" y="9" width="1" height="1" fill="#F17300"/>
<rect x="23" y="9" width="1" height="1" fill="#F17300"/>
<rect x="24" y="9" width="1" height="1" fill="#F17300"/>
<rect x="0" y="10" width="1" height="1" fill="#F17300"/>
<rect x="1" y="10" width="1" height="1" fill="#F17300"/>
<rect x="2" y="10" width="1" height="1" fill="#F17300"/>
<rect x="6" y="10" width="1" height="1" fill="#F17300"/>
<rect x="8" y="10" width="1" height="1" fill="#F17300"/>
<rect x="11" y="10" width="1" height="1" fill="#F17300"/>
<rect x="12" y="10" width="1" height="1" fill="#F17300"/>
<rect x="15" y="10" width="1" height="1" fill="#F17300"/>
<rect x="16" y="10" width="1" height="1" fill="#F17300"/>
<rect x="18" y="10" width="1" height="1" fill="#F17300"/>
<rect x="19" y="10" width="1" height="1" fill="#F17300"/>
<rect x="20" y="10" width="1" height="1" fill="#F17300"/>
<rect x="21" y="10" width="1" height="1" fill="#F17300"/>
<rect x="22" y="10" width="1" height="1" fill="#F17300"/>
<rect x="24" y="10" width="1" height="1" fill="#F17300"/>
<rect x="2" y="11" width="1" height="1" fill="#F17300"/>
<rect x="3" y="11" width="1" height="1" fill="#F17300"/>
<rect x="5" y="11" width="1" height="1" fill="#F17300"/>
<rect x="7" y="11" width="1" height="1" fill="#F17300"/>
<rect x="9" y="11" width="1" height="1" fill="#F17300"/>
<rect x="10" y="11" width="1" height="1" fill="#F17300"/>
<rect x="11" y="11" width="1" height="1" fill="#F17300"/>
<rect x="14" y="11" width="1" height="1" fill="#F17300"/>
<rect x="15" y="11" width="1" height="1" fill="#F17300"/>
<rect x="16" y="11" width="1" height="1" fill="#F17300"/>
<rect x="17" y="11" width="1" height="1" fill="#F17300"/>
<rect x="19" y="11" width="1" height="1" fill="#F17300"/>
<rect x="21" y="11" width="1" height="1" fill="#F17300"/>
<rect x="0" y="12" width="1" height="1" fill="#F17300"/>
<rect x="1" y="12" width="1" height="1" fill="#F17300"/>
<rect x="2" y="12" width="1" height="1" fill="#F17300"/>
<rect x="6" y="12" width="1" height="1" fill="#F17300"/>
<rect x="10" y="12" width="1" height="1" fill="#F17300"/>
<rect x="11" y="12" width="1" height="1" fill="#F17300"/>
<rect x="12" y="12" width="1" height="1" fill="#F17300"/>
<rect x="15" y="12" width="1" height="1" fill="#F17300"/>
<rect x="16" y="12" width="1" height="1" fill="#F17300"/>
<rect x="18" y="12" width="1" height="1" fill="#F17300"/>
<rect x="19" y="12" width="1" height="1" fill="#F17300"/>
<rect x="24" y="12" width="1" height="1" fill="#F17300"/>
<rect x="2" y="13" width="1" height="1" fill="#F17300"/>
<rect x="3" y="13" width="1" height="1" fill="#F17300"/>
<rect x="8" y="13" width="1" height="1" fill="#F17300"/>
<rect x="9" y="13" width="1" height="1" fill="#F17300"/>
<rect x="12" y="13" width="1" height="1" fill="#F17300"/>
<rect x="13" y="13" width="1" height="1" fill="#F17300"/>
<rect x="15" y="13" width="1" height="1" fill="#F17300"/>
<rect x="16" y="13" width="1" height="1" fill="#F17300"/>
<rect x="18" y="13" width="1" height="1" fill="#F17300"/>
<rect x="19" y="13" width="1" height="1" fill="#F17300"/>
<rect x="23" y="13" width="1" height="1" fill="#F17300"/>
<rect x="24" y="13" width="1" height="1" fill="#F17300"/>
<rect x="0" y="14" width="1" height="1" fill="#F17300"/>
<rect x="1" y="14" width="1" height="1" fill="#F17300"/>
<rect x="3" y="14" width="1" height="1" fill="#F17300"/>
<rect x="5" y="14" width="1" height="1" fill="#F17300"/>
<rect x="6" y="14" width="1" height="1" fill="#F17300"/>
<rect x="9" y="14" width="1" height="1" fill="#F17300"/>
<rect x="10" y="14" width="1" height="1" fill="#F17300"/>
<rect x="12" y="14" width="1" height="1" fill="#F17300"/>
<rect x="13" y="14" width="1" height="1" fill="#F17300"/>
<rect x="15" y="14" width="1" height="1" fill="#F17300"/>
<rect x="21" y="14" width="1" height="1" fill="#F17300"/>
<rect x="22" y="14" width="1" height="1" fill="#F17300"/>
<rect x="24" y="14" width="1" height="1" fill="#F17300"/>
<rect x="3" y="15" width="1" height="1" fill="#F17300"/>
<rect x="4" y="15" width="1" height="1" fill="#F17300"/>
<rect x="5" y="15" width="1" height="1" fill="#F17300"/>
<rect x="7" y="15" width="1" height="1" fill="#F17300"/>
<rect x="9" y="15" width="1" height="1" fill="#F17300"/>
<rect x="10" y="15" width="1" height="1" fill="#F17300"/>
<rect x="11" y="15" width="1" height="1" fill="#F17300"/>
<rect x="12" y="15" width="1" height="1" fill="#F17300"/>
<rect x="14" y="15" width="1" height="1" fill="#F17300"/>
<rect x="17" y="15" width="1" height="1" fill="#F17300"/>
<rect x="19" y="15" width="1" height="1" fill="#F17300"/>
<rect x="20" y="15" width="1" height="1" fill="#F17300"/>
<rect x="21" y="15" width="1" height="1" fill="#F17300"/>
<rect x="0" y="16" width="1" height="1" fill="#F17300"/>
<rect x="1" y="16" width="1" height="1" fill="#F17300"/>
<rect x="3" y="16" width="1" height="1" fill="#F17300"/>
<rect x="4" y="16" width="1" height="1" fill="#F17300"/>
<rect x="5" y="16" width="1" height="1" fill="#F17300"/>
<rect x="6" y="16" width="1" height="1" fill="#F17300"/>
<rect x="7" y="16" width="1" height="1" fill="#F17300"/>
<rect x="13" y="16" width="1" height="1" fill="#F17300"/>
<rect x="14" y="16" width="1" height="1" fill="#F17300"/>
<rect x="16" y="16" width="1" height="1" fill="#F17300"/>
<rect x="17" y="16" width="1" height="1" fill="#F17300"/>
<rect x="18" y="16" width="1" height="1" fill="#F17300"/>
<rect x="19" y="16" width="1" height="1" fill="#F17300"/>
<rect x="20" y="16" width="1" height="1" fill="#F17300"/>
<rect x="23" y="16" width="1" height="1" fill="#F17300"/>
<rect x="8" y="17" width="1" height="1" fill="#F17300"/>
<rect x="10" y="17" width="1" height="1" fill="#F17300"/>
<rect x="13" y="17" width="1" height="1" fill="#F17300"/>
<rect x="16" y="17" width="1" height="1" fill="#F17300"/>
<rect x="20" y="17" width="1" height="1" fill="#F17300"/>
<rect x="24" y="17" width="1" height="1" fill="#F17300"/>
<rect x="0" y="18" width="1" height="1" fill="#F17300"/>
<rect x="1" y="18" width="1" height="1" fill="#F17300"/>
<rect x="2" y="18" width="1" height="1" fill="#F17300"/>
<rect x="3" y="18" width="1" height="1" fill="#F17300"/>
<rect x="4" y="18" width="1" height="1" fill="#F17300"/>
<rect x="5" y="18" width="1" height="1" fill="#F17300"/>
<rect x="6" y="18" width="1" height="1" fill="#F17300"/>
<rect x="8" y="18" width="1" height="1" fill="#F17300"/>
<rect x="11" y="18" width="1" height="1" fill="#F17300"/>
<rect x="16" y="18" width="1" height="1" fill="#F17300"/>
<rect x="18" y="18" width="1" height="1" fill="#F17300"/>
<rect x="20" y="18" width="1" height="1" fill="#F17300"/>
<rect x="24" y="18" width="1" height="1" fill="#F17300"/>
<rect x="0" y="19" width="1" height="1" fill="#F17300"/>
<rect x="6" y="19" width="1" height="1" fill="#F17300"/>
<rect x="9" y="19" width="1" height="1" fill="#F17300"/>
<rect x="13" y="19" width="1" height="1" fill="#F17300"/>
<rect x="15" y="19" width="1" height="1" fill="#F17300"/>
<rect x="16" y="19" width="1" height="1" fill="#F17300"/>
<rect x="20" y="19" width="1" height="1" fill="#F17300"/>
<rect x="23" y="19" width="1" height="1" fill="#F17300"/>
<rect x="0" y="20" width="1" height="1" fill="#F17300"/>
<rect x="2" y="20" width="1" height="1" fill="#F17300"/>
<rect x="3" y="20" width="1" height="1" fill="#F17300"/>
<rect x="4" y="20" width="1" height="1" fill="#F17300"/>
<rect x="6" y="20" width="1" height="1" fill="#F17300"/>
<rect x="11" y="20" width="1" height="1" fill="#F17300"/>
<rect x="12" y="20" width="1" height="1" fill="#F17300"/>
<rect x="13" y="20" width="1" height="1" fill="#F17300"/>
<rect x="15" y="20" width="1" height="1" fill="#F17300"/>
<rect x="16" y="20" width="1" height="1" fill="#F17300"/>
<rect x="17" y="20" width="1" height="1" fill="#F17300"/>
<rect x="18" y="20" width="1" height="1" fill="#F17300"/>
<rect x="19" y="20" width="1" height="1" fill="#F17300"/>
<rect x="20" y="20" width="1" height="1" fill="#F17300"/>
<rect x="24" y="20" width="1" height="1" fill="#F17300"/>
<rect x="0" y="21" width="1" height="1" fill="#F17300"/>
<rect x="2" y="21" width="1" height="1" fill="#F17300"/>
<rect x="3" y="21" width="1" height="1" fill="#F17300"/>
<rect x="4" y="21" width="1" height="1" fill="#F17300"/>
<rect x="6" y="21" width="1" height="1" fill="#F17300"/>
<rect x="10" y="21" width="1" height="1" fill="#F17300"/>
<rect x="12" y="21" width="1" height="1" fill="#F17300"/>
<rect x="17" y="21" width="1" height="1" fill="#F17300"/>
<rect x="20" y="21" width="1" height="1" fill="#F17300"/>
<rect x="22" y="21" width="1" height="1" fill="#F17300"/>
<rect x="23" y="21" width="1" height="1" fill="#F17300"/>
<rect x="0" y="22" width="1" height="1" fill="#F17300"/>
<rect x="2" y="22" width="1" height="1" fill="#F17300"/>
<rect x="3" y="22" width="1" height="1" fill="#F17300"/>
<rect x="4" y="22" width="1" height="1" fill="#F17300"/>
<rect x="6" y="22" width="1" height="1" fill="#F17300"/>
<rect x="8" y="22" width="1" height="1" fill="#F17300"/>
<rect x="9" y="22" width="1" height="1" fill="#F17300"/>
<rect x="10" y="22" width="1" height="1" fill="#F17300"/>
<rect x="12" y="22" width="1" height="1" fill="#F17300"/>
<rect x="13" y="22" width="1" height="1" fill="#F17300"/>
<rect x="14" y="22" width="1" height="1" fill="#F17300"/>
<rect x="17" y="22" width="1" height="1" fill="#F17300"/>
<rect x="19" y="22" width="1" height="1" fill="#F17300"/>
<rect x="20" y="22" width="1" height="1" fill="#F17300"/>
<rect x="21" y="22" width="1" height="1" fill="#F17300"/>
<rect x="23" y="22" width="1" height="1" fill="#F17300"/>
<rect x="24" y="22" width="1" height="1" fill="#F17300"/>
<rect x="0" y="23" width="1" height="1" fill="#F17300"/>
<rect x="6" y="23" width="1" height="1" fill="#F17300"/>
<rect x="9" y="23" width="1" height="1" fill="#F17300"/>
<rect x="10" y="23" width="1" height="1" fill="#F17300"/>
<rect x="11" y="23" width="1" height="1" fill="#F17300"/>
<rect x="12" y="23" width="1" height="1" fill="#F17300"/>
<rect x="14" y="23" width="1" height="1" fill="#F17300"/>
<rect x="16" y="23" width="1" height="1" fill="#F17300"/>
<rect x="19" y="23" width="1" height="1" fill="#F17300"/>
<rect x="20" y="23" width="1" height="1" fill="#F17300"/>
<rect x="0" y="24" width="1" height="1" fill="#F17300"/>
<rect x="1" y="24" width="1" height="1" fill="#F17300"/>
<rect x="2" y="24" width="1" height="1" fill="#F17300"/>
<rect x="3" y="24" width="1" height="1" fill="#F17300"/>
<rect x="4" y="24" width="1" height="1" fill="#F17300"/>
<rect x="5" y="24" width="1" height="1" fill="#F17300"/>
<rect x="6" y="24" width="1" height="1" fill="#F17300"/>
<rect x="8" y="24" width="1" height="1" fill="#F17300"/>
<rect x="9" y="24" width="1" height="1" fill="#F17300"/>
<rect x="10" y="24" width="1" height="1" fill="#F17300"/>
<rect x="13" y="24" width="1" height="1" fill="#F17300"/>
<rect x="14" y="24" width="1" height="1" fill="#F17300"/>
<rect x="16" y="24" width="1" height="1" fill="#F17300"/>
<rect x="17" y="24" width="1" height="1" fill="#F17300"/>
<rect x="21" y="24" width="1" height="1" fill="#F17300"/>
<rect x="24" y="24" width="1" height="1" fill="#F17300"/>
  </g>

  <!-- URL bottom -->
  <text x="450" y="750" font-family="Oswald, sans-serif" font-weight="700" font-size="36" fill="#F17300" letter-spacing="4" text-anchor="middle">DUMBLIFTS.COM</text>

  <!-- Quick descriptor -->
  <text x="450" y="800" font-family="Source Sans 3, sans-serif" font-weight="500" font-size="20" fill="#d0c8b8" text-anchor="middle" letter-spacing="1">Free dumbbell-based 5x5 workout tracker</text>

  <!-- Small dumbbell icon bottom center -->
  <g transform="translate(406, 830) scale(0.35)">
    <rect x="62" y="68" width="70" height="14" rx="7" fill="#F17300" opacity="0.3"/>
    <rect x="34" y="42" width="36" height="66" rx="7" fill="#F17300" opacity="0.3"/>
    <rect x="14" y="50" width="28" height="50" rx="5" fill="#F17300" opacity="0.3"/>
    <rect x="124" y="42" width="36" height="66" rx="7" fill="#F17300" opacity="0.3"/>
    <rect x="152" y="50" width="28" height="50" rx="5" fill="#F17300" opacity="0.3"/>
  </g>
</svg>
